<?xml version="1.0" encoding="utf-8" standalone="no"?>
<!DOCTYPE svg PUBLIC "-//W3C//DTD SVG 1.1//EN"
  "http://www.w3.org/Graphics/SVG/1.1/DTD/svg11.dtd">
<!-- Created with matplotlib (https://matplotlib.org/) -->
<svg height="360pt" version="1.1" viewBox="0 0 1008 360" width="1008pt" xmlns="http://www.w3.org/2000/svg" xmlns:xlink="http://www.w3.org/1999/xlink">
 <defs>
  <style type="text/css">
*{stroke-linecap:butt;stroke-linejoin:round;}
  </style>
 </defs>
 <g id="figure_1">
  <g id="patch_1">
   <path d="M 0 360 
L 1008 360 
L 1008 0 
L 0 0 
z
" style="fill:#ffffff;"/>
  </g>
  <g id="axes_1">
   <g id="patch_2">
    <path d="M 49.3 332.2 
L 337.15 332.2 
L 337.15 30.3 
L 49.3 30.3 
z
" style="fill:#ffffff;"/>
   </g>
   <g id="matplotlib.axis_1">
    <g id="xtick_1">
     <g id="line2d_1">
      <path clip-path="url(#pcec476fda0)" d="M 62.294235 332.2 
L 62.294235 30.3 
" style="fill:none;stroke:#b0b0b0;stroke-linecap:square;stroke-width:0.5;"/>
     </g>
     <g id="line2d_2">
      <defs>
       <path d="M 0 0 
L 0 3.5 
" id="m01063c803a" style="stroke:#000000;stroke-width:0.8;"/>
      </defs>
      <g>
       <use style="stroke:#000000;stroke-width:0.8;" x="62.294235" xlink:href="#m01063c803a" y="332.2"/>
      </g>
     </g>
     <g id="text_1">
      <!-- 0 -->
      <defs>
       <path d="M 31.78125 66.40625 
Q 24.171875 66.40625 20.328125 58.90625 
Q 16.5 51.421875 16.5 36.375 
Q 16.5 21.390625 20.328125 13.890625 
Q 24.171875 6.390625 31.78125 6.390625 
Q 39.453125 6.390625 43.28125 13.890625 
Q 47.125 21.390625 47.125 36.375 
Q 47.125 51.421875 43.28125 58.90625 
Q 39.453125 66.40625 31.78125 66.40625 
z
M 31.78125 74.21875 
Q 44.046875 74.21875 50.515625 64.515625 
Q 56.984375 54.828125 56.984375 36.375 
Q 56.984375 17.96875 50.515625 8.265625 
Q 44.046875 -1.421875 31.78125 -1.421875 
Q 19.53125 -1.421875 13.0625 8.265625 
Q 6.59375 17.96875 6.59375 36.375 
Q 6.59375 54.828125 13.0625 64.515625 
Q 19.53125 74.21875 31.78125 74.21875 
z
" id="DejaVuSans-48"/>
      </defs>
      <g transform="translate(59.112985 346.798438)scale(0.1 -0.1)">
       <use xlink:href="#DejaVuSans-48"/>
      </g>
     </g>
    </g>
    <g id="xtick_2">
     <g id="line2d_3">
      <path clip-path="url(#pcec476fda0)" d="M 114.64857 332.2 
L 114.64857 30.3 
" style="fill:none;stroke:#b0b0b0;stroke-linecap:square;stroke-width:0.5;"/>
     </g>
     <g id="line2d_4">
      <g>
       <use style="stroke:#000000;stroke-width:0.8;" x="114.64857" xlink:href="#m01063c803a" y="332.2"/>
      </g>
     </g>
     <g id="text_2">
      <!-- 200 -->
      <defs>
       <path d="M 19.1875 8.296875 
L 53.609375 8.296875 
L 53.609375 0 
L 7.328125 0 
L 7.328125 8.296875 
Q 12.9375 14.109375 22.625 23.890625 
Q 32.328125 33.6875 34.8125 36.53125 
Q 39.546875 41.84375 41.421875 45.53125 
Q 43.3125 49.21875 43.3125 52.78125 
Q 43.3125 58.59375 39.234375 62.25 
Q 35.15625 65.921875 28.609375 65.921875 
Q 23.96875 65.921875 18.8125 64.3125 
Q 13.671875 62.703125 7.8125 59.421875 
L 7.8125 69.390625 
Q 13.765625 71.78125 18.9375 73 
Q 24.125 74.21875 28.421875 74.21875 
Q 39.75 74.21875 46.484375 68.546875 
Q 53.21875 62.890625 53.21875 53.421875 
Q 53.21875 48.921875 51.53125 44.890625 
Q 49.859375 40.875 45.40625 35.40625 
Q 44.1875 33.984375 37.640625 27.21875 
Q 31.109375 20.453125 19.1875 8.296875 
z
" id="DejaVuSans-50"/>
      </defs>
      <g transform="translate(105.10482 346.798438)scale(0.1 -0.1)">
       <use xlink:href="#DejaVuSans-50"/>
       <use x="63.623047" xlink:href="#DejaVuSans-48"/>
       <use x="127.246094" xlink:href="#DejaVuSans-48"/>
      </g>
     </g>
    </g>
    <g id="xtick_3">
     <g id="line2d_5">
      <path clip-path="url(#pcec476fda0)" d="M 167.002905 332.2 
L 167.002905 30.3 
" style="fill:none;stroke:#b0b0b0;stroke-linecap:square;stroke-width:0.5;"/>
     </g>
     <g id="line2d_6">
      <g>
       <use style="stroke:#000000;stroke-width:0.8;" x="167.002905" xlink:href="#m01063c803a" y="332.2"/>
      </g>
     </g>
     <g id="text_3">
      <!-- 400 -->
      <defs>
       <path d="M 37.796875 64.3125 
L 12.890625 25.390625 
L 37.796875 25.390625 
z
M 35.203125 72.90625 
L 47.609375 72.90625 
L 47.609375 25.390625 
L 58.015625 25.390625 
L 58.015625 17.1875 
L 47.609375 17.1875 
L 47.609375 0 
L 37.796875 0 
L 37.796875 17.1875 
L 4.890625 17.1875 
L 4.890625 26.703125 
z
" id="DejaVuSans-52"/>
      </defs>
      <g transform="translate(157.459155 346.798438)scale(0.1 -0.1)">
       <use xlink:href="#DejaVuSans-52"/>
       <use x="63.623047" xlink:href="#DejaVuSans-48"/>
       <use x="127.246094" xlink:href="#DejaVuSans-48"/>
      </g>
     </g>
    </g>
    <g id="xtick_4">
     <g id="line2d_7">
      <path clip-path="url(#pcec476fda0)" d="M 219.35724 332.2 
L 219.35724 30.3 
" style="fill:none;stroke:#b0b0b0;stroke-linecap:square;stroke-width:0.5;"/>
     </g>
     <g id="line2d_8">
      <g>
       <use style="stroke:#000000;stroke-width:0.8;" x="219.35724" xlink:href="#m01063c803a" y="332.2"/>
      </g>
     </g>
     <g id="text_4">
      <!-- 600 -->
      <defs>
       <path d="M 33.015625 40.375 
Q 26.375 40.375 22.484375 35.828125 
Q 18.609375 31.296875 18.609375 23.390625 
Q 18.609375 15.53125 22.484375 10.953125 
Q 26.375 6.390625 33.015625 6.390625 
Q 39.65625 6.390625 43.53125 10.953125 
Q 47.40625 15.53125 47.40625 23.390625 
Q 47.40625 31.296875 43.53125 35.828125 
Q 39.65625 40.375 33.015625 40.375 
z
M 52.59375 71.296875 
L 52.59375 62.3125 
Q 48.875 64.0625 45.09375 64.984375 
Q 41.3125 65.921875 37.59375 65.921875 
Q 27.828125 65.921875 22.671875 59.328125 
Q 17.53125 52.734375 16.796875 39.40625 
Q 19.671875 43.65625 24.015625 45.921875 
Q 28.375 48.1875 33.59375 48.1875 
Q 44.578125 48.1875 50.953125 41.515625 
Q 57.328125 34.859375 57.328125 23.390625 
Q 57.328125 12.15625 50.6875 5.359375 
Q 44.046875 -1.421875 33.015625 -1.421875 
Q 20.359375 -1.421875 13.671875 8.265625 
Q 6.984375 17.96875 6.984375 36.375 
Q 6.984375 53.65625 15.1875 63.9375 
Q 23.390625 74.21875 37.203125 74.21875 
Q 40.921875 74.21875 44.703125 73.484375 
Q 48.484375 72.75 52.59375 71.296875 
z
" id="DejaVuSans-54"/>
      </defs>
      <g transform="translate(209.81349 346.798438)scale(0.1 -0.1)">
       <use xlink:href="#DejaVuSans-54"/>
       <use x="63.623047" xlink:href="#DejaVuSans-48"/>
       <use x="127.246094" xlink:href="#DejaVuSans-48"/>
      </g>
     </g>
    </g>
    <g id="xtick_5">
     <g id="line2d_9">
      <path clip-path="url(#pcec476fda0)" d="M 271.711574 332.2 
L 271.711574 30.3 
" style="fill:none;stroke:#b0b0b0;stroke-linecap:square;stroke-width:0.5;"/>
     </g>
     <g id="line2d_10">
      <g>
       <use style="stroke:#000000;stroke-width:0.8;" x="271.711574" xlink:href="#m01063c803a" y="332.2"/>
      </g>
     </g>
     <g id="text_5">
      <!-- 800 -->
      <defs>
       <path d="M 31.78125 34.625 
Q 24.75 34.625 20.71875 30.859375 
Q 16.703125 27.09375 16.703125 20.515625 
Q 16.703125 13.921875 20.71875 10.15625 
Q 24.75 6.390625 31.78125 6.390625 
Q 38.8125 6.390625 42.859375 10.171875 
Q 46.921875 13.96875 46.921875 20.515625 
Q 46.921875 27.09375 42.890625 30.859375 
Q 38.875 34.625 31.78125 34.625 
z
M 21.921875 38.8125 
Q 15.578125 40.375 12.03125 44.71875 
Q 8.5 49.078125 8.5 55.328125 
Q 8.5 64.0625 14.71875 69.140625 
Q 20.953125 74.21875 31.78125 74.21875 
Q 42.671875 74.21875 48.875 69.140625 
Q 55.078125 64.0625 55.078125 55.328125 
Q 55.078125 49.078125 51.53125 44.71875 
Q 48 40.375 41.703125 38.8125 
Q 48.828125 37.15625 52.796875 32.3125 
Q 56.78125 27.484375 56.78125 20.515625 
Q 56.78125 9.90625 50.3125 4.234375 
Q 43.84375 -1.421875 31.78125 -1.421875 
Q 19.734375 -1.421875 13.25 4.234375 
Q 6.78125 9.90625 6.78125 20.515625 
Q 6.78125 27.484375 10.78125 32.3125 
Q 14.796875 37.15625 21.921875 38.8125 
z
M 18.3125 54.390625 
Q 18.3125 48.734375 21.84375 45.5625 
Q 25.390625 42.390625 31.78125 42.390625 
Q 38.140625 42.390625 41.71875 45.5625 
Q 45.3125 48.734375 45.3125 54.390625 
Q 45.3125 60.0625 41.71875 63.234375 
Q 38.140625 66.40625 31.78125 66.40625 
Q 25.390625 66.40625 21.84375 63.234375 
Q 18.3125 60.0625 18.3125 54.390625 
z
" id="DejaVuSans-56"/>
      </defs>
      <g transform="translate(262.167824 346.798438)scale(0.1 -0.1)">
       <use xlink:href="#DejaVuSans-56"/>
       <use x="63.623047" xlink:href="#DejaVuSans-48"/>
       <use x="127.246094" xlink:href="#DejaVuSans-48"/>
      </g>
     </g>
    </g>
    <g id="xtick_6">
     <g id="line2d_11">
      <path clip-path="url(#pcec476fda0)" d="M 324.065909 332.2 
L 324.065909 30.3 
" style="fill:none;stroke:#b0b0b0;stroke-linecap:square;stroke-width:0.5;"/>
     </g>
     <g id="line2d_12">
      <g>
       <use style="stroke:#000000;stroke-width:0.8;" x="324.065909" xlink:href="#m01063c803a" y="332.2"/>
      </g>
     </g>
     <g id="text_6">
      <!-- 1000 -->
      <defs>
       <path d="M 12.40625 8.296875 
L 28.515625 8.296875 
L 28.515625 63.921875 
L 10.984375 60.40625 
L 10.984375 69.390625 
L 28.421875 72.90625 
L 38.28125 72.90625 
L 38.28125 8.296875 
L 54.390625 8.296875 
L 54.390625 0 
L 12.40625 0 
z
" id="DejaVuSans-49"/>
      </defs>
      <g transform="translate(311.340909 346.798438)scale(0.1 -0.1)">
       <use xlink:href="#DejaVuSans-49"/>
       <use x="63.623047" xlink:href="#DejaVuSans-48"/>
       <use x="127.246094" xlink:href="#DejaVuSans-48"/>
       <use x="190.869141" xlink:href="#DejaVuSans-48"/>
      </g>
     </g>
    </g>
   </g>
   <g id="matplotlib.axis_2">
    <g id="ytick_1">
     <g id="line2d_13">
      <path clip-path="url(#pcec476fda0)" d="M 49.3 323.026832 
L 337.15 323.026832 
" style="fill:none;stroke:#b0b0b0;stroke-linecap:square;stroke-width:0.5;"/>
     </g>
     <g id="line2d_14">
      <defs>
       <path d="M 0 0 
L -3.5 0 
" id="ma7bd39e2bf" style="stroke:#000000;stroke-width:0.8;"/>
      </defs>
      <g>
       <use style="stroke:#000000;stroke-width:0.8;" x="49.3" xlink:href="#ma7bd39e2bf" y="323.026832"/>
      </g>
     </g>
     <g id="text_7">
      <!-- 0 -->
      <g transform="translate(35.9375 326.826051)scale(0.1 -0.1)">
       <use xlink:href="#DejaVuSans-48"/>
      </g>
     </g>
    </g>
    <g id="ytick_2">
     <g id="line2d_15">
      <path clip-path="url(#pcec476fda0)" d="M 49.3 281.628685 
L 337.15 281.628685 
" style="fill:none;stroke:#b0b0b0;stroke-linecap:square;stroke-width:0.5;"/>
     </g>
     <g id="line2d_16">
      <g>
       <use style="stroke:#000000;stroke-width:0.8;" x="49.3" xlink:href="#ma7bd39e2bf" y="281.628685"/>
      </g>
     </g>
     <g id="text_8">
      <!-- 2000 -->
      <g transform="translate(16.85 285.427903)scale(0.1 -0.1)">
       <use xlink:href="#DejaVuSans-50"/>
       <use x="63.623047" xlink:href="#DejaVuSans-48"/>
       <use x="127.246094" xlink:href="#DejaVuSans-48"/>
       <use x="190.869141" xlink:href="#DejaVuSans-48"/>
      </g>
     </g>
    </g>
    <g id="ytick_3">
     <g id="line2d_17">
      <path clip-path="url(#pcec476fda0)" d="M 49.3 240.230537 
L 337.15 240.230537 
" style="fill:none;stroke:#b0b0b0;stroke-linecap:square;stroke-width:0.5;"/>
     </g>
     <g id="line2d_18">
      <g>
       <use style="stroke:#000000;stroke-width:0.8;" x="49.3" xlink:href="#ma7bd39e2bf" y="240.230537"/>
      </g>
     </g>
     <g id="text_9">
      <!-- 4000 -->
      <g transform="translate(16.85 244.029756)scale(0.1 -0.1)">
       <use xlink:href="#DejaVuSans-52"/>
       <use x="63.623047" xlink:href="#DejaVuSans-48"/>
       <use x="127.246094" xlink:href="#DejaVuSans-48"/>
       <use x="190.869141" xlink:href="#DejaVuSans-48"/>
      </g>
     </g>
    </g>
    <g id="ytick_4">
     <g id="line2d_19">
      <path clip-path="url(#pcec476fda0)" d="M 49.3 198.83239 
L 337.15 198.83239 
" style="fill:none;stroke:#b0b0b0;stroke-linecap:square;stroke-width:0.5;"/>
     </g>
     <g id="line2d_20">
      <g>
       <use style="stroke:#000000;stroke-width:0.8;" x="49.3" xlink:href="#ma7bd39e2bf" y="198.83239"/>
      </g>
     </g>
     <g id="text_10">
      <!-- 6000 -->
      <g transform="translate(16.85 202.631608)scale(0.1 -0.1)">
       <use xlink:href="#DejaVuSans-54"/>
       <use x="63.623047" xlink:href="#DejaVuSans-48"/>
       <use x="127.246094" xlink:href="#DejaVuSans-48"/>
       <use x="190.869141" xlink:href="#DejaVuSans-48"/>
      </g>
     </g>
    </g>
    <g id="ytick_5">
     <g id="line2d_21">
      <path clip-path="url(#pcec476fda0)" d="M 49.3 157.434242 
L 337.15 157.434242 
" style="fill:none;stroke:#b0b0b0;stroke-linecap:square;stroke-width:0.5;"/>
     </g>
     <g id="line2d_22">
      <g>
       <use style="stroke:#000000;stroke-width:0.8;" x="49.3" xlink:href="#ma7bd39e2bf" y="157.434242"/>
      </g>
     </g>
     <g id="text_11">
      <!-- 8000 -->
      <g transform="translate(16.85 161.233461)scale(0.1 -0.1)">
       <use xlink:href="#DejaVuSans-56"/>
       <use x="63.623047" xlink:href="#DejaVuSans-48"/>
       <use x="127.246094" xlink:href="#DejaVuSans-48"/>
       <use x="190.869141" xlink:href="#DejaVuSans-48"/>
      </g>
     </g>
    </g>
    <g id="ytick_6">
     <g id="line2d_23">
      <path clip-path="url(#pcec476fda0)" d="M 49.3 116.036095 
L 337.15 116.036095 
" style="fill:none;stroke:#b0b0b0;stroke-linecap:square;stroke-width:0.5;"/>
     </g>
     <g id="line2d_24">
      <g>
       <use style="stroke:#000000;stroke-width:0.8;" x="49.3" xlink:href="#ma7bd39e2bf" y="116.036095"/>
      </g>
     </g>
     <g id="text_12">
      <!-- 10000 -->
      <g transform="translate(10.4875 119.835313)scale(0.1 -0.1)">
       <use xlink:href="#DejaVuSans-49"/>
       <use x="63.623047" xlink:href="#DejaVuSans-48"/>
       <use x="127.246094" xlink:href="#DejaVuSans-48"/>
       <use x="190.869141" xlink:href="#DejaVuSans-48"/>
       <use x="254.492188" xlink:href="#DejaVuSans-48"/>
      </g>
     </g>
    </g>
    <g id="ytick_7">
     <g id="line2d_25">
      <path clip-path="url(#pcec476fda0)" d="M 49.3 74.637947 
L 337.15 74.637947 
" style="fill:none;stroke:#b0b0b0;stroke-linecap:square;stroke-width:0.5;"/>
     </g>
     <g id="line2d_26">
      <g>
       <use style="stroke:#000000;stroke-width:0.8;" x="49.3" xlink:href="#ma7bd39e2bf" y="74.637947"/>
      </g>
     </g>
     <g id="text_13">
      <!-- 12000 -->
      <g transform="translate(10.4875 78.437166)scale(0.1 -0.1)">
       <use xlink:href="#DejaVuSans-49"/>
       <use x="63.623047" xlink:href="#DejaVuSans-50"/>
       <use x="127.246094" xlink:href="#DejaVuSans-48"/>
       <use x="190.869141" xlink:href="#DejaVuSans-48"/>
       <use x="254.492188" xlink:href="#DejaVuSans-48"/>
      </g>
     </g>
    </g>
    <g id="ytick_8">
     <g id="line2d_27">
      <path clip-path="url(#pcec476fda0)" d="M 49.3 33.239799 
L 337.15 33.239799 
" style="fill:none;stroke:#b0b0b0;stroke-linecap:square;stroke-width:0.5;"/>
     </g>
     <g id="line2d_28">
      <g>
       <use style="stroke:#000000;stroke-width:0.8;" x="49.3" xlink:href="#ma7bd39e2bf" y="33.239799"/>
      </g>
     </g>
     <g id="text_14">
      <!-- 14000 -->
      <g transform="translate(10.4875 37.039018)scale(0.1 -0.1)">
       <use xlink:href="#DejaVuSans-49"/>
       <use x="63.623047" xlink:href="#DejaVuSans-52"/>
       <use x="127.246094" xlink:href="#DejaVuSans-48"/>
       <use x="190.869141" xlink:href="#DejaVuSans-48"/>
       <use x="254.492188" xlink:href="#DejaVuSans-48"/>
      </g>
     </g>
    </g>
   </g>
   <g id="line2d_29">
    <path clip-path="url(#pcec476fda0)" d="M 62.384091 282.415249 
L 70.021809 282.299466 
L 77.300106 281.970065 
L 84.129124 281.443452 
L 90.41901 280.737978 
L 95.990061 279.896513 
L 101.021967 278.917245 
L 105.514728 277.820277 
L 109.46837 276.634387 
L 113.0626 275.328984 
L 116.297391 273.919832 
L 119.17277 272.432383 
L 121.868442 270.785358 
L 124.294542 269.041116 
L 126.540936 267.148979 
L 128.607597 265.11418 
L 130.494578 262.949657 
L 132.291667 260.548941 
L 133.998915 257.88532 
L 135.616324 254.929953 
L 137.143867 251.652155 
L 138.581569 248.020508 
L 139.929405 244.004204 
L 141.187375 239.575671 
L 142.445345 234.304626 
L 143.613475 228.435277 
L 144.781579 221.336562 
L 145.859869 213.345685 
L 146.848266 204.416094 
L 147.83669 193.452204 
L 148.825087 179.778399 
L 149.723645 164.234456 
L 150.622202 144.869966 
L 151.610626 118.295408 
L 154.120178 46.279751 
L 154.411452 44.116216 
L 154.494172 44.024401 
L 154.542887 44.083442 
L 154.664899 44.604689 
L 154.816884 46.004048 
L 155.105723 50.902527 
L 155.492228 61.558629 
L 156.172521 88.014065 
L 158.044136 164.80384 
L 159.04413 195.145459 
L 159.953106 216.409057 
L 160.870563 233.232607 
L 161.900059 248.029918 
L 162.940366 259.79606 
L 163.99151 269.317873 
L 165.160451 277.855225 
L 166.342821 284.859875 
L 167.538778 290.692834 
L 168.859154 296.020129 
L 170.1961 300.497479 
L 171.549826 304.296594 
L 173.035512 307.789426 
L 174.541458 310.741289 
L 176.067796 313.222208 
L 177.495185 315.122737 
L 178.819357 316.530697 
L 180.036359 317.506489 
L 181.142502 318.106136 
L 182.134486 318.400687 
L 183.134689 318.475355 
L 184.26994 318.332949 
L 185.671963 317.923052 
L 187.870531 317.015236 
L 195.947941 313.503123 
L 200.036317 312.042785 
L 204.39725 310.721854 
L 209.201205 309.49915 
L 214.641711 308.347017 
L 220.776932 307.276558 
L 227.845684 306.270799 
L 236.130574 305.322342 
L 245.780813 304.445825 
L 257.380361 303.623727 
L 271.227323 302.872534 
L 288.159186 302.184315 
L 309.269867 301.558789 
L 324.065909 301.224445 
L 324.065909 301.224445 
" style="fill:none;stroke:#d62728;stroke-linecap:square;stroke-width:1.5;"/>
   </g>
   <g id="patch_3">
    <path d="M 49.3 332.2 
L 49.3 30.3 
" style="fill:none;stroke:#000000;stroke-linecap:square;stroke-linejoin:miter;stroke-width:0.8;"/>
   </g>
   <g id="patch_4">
    <path d="M 337.15 332.2 
L 337.15 30.3 
" style="fill:none;stroke:#000000;stroke-linecap:square;stroke-linejoin:miter;stroke-width:0.8;"/>
   </g>
   <g id="patch_5">
    <path d="M 49.3 332.2 
L 337.15 332.2 
" style="fill:none;stroke:#000000;stroke-linecap:square;stroke-linejoin:miter;stroke-width:0.8;"/>
   </g>
   <g id="patch_6">
    <path d="M 49.3 30.3 
L 337.15 30.3 
" style="fill:none;stroke:#000000;stroke-linecap:square;stroke-linejoin:miter;stroke-width:0.8;"/>
   </g>
   <g id="text_15">
    <!-- X-direction -->
    <defs>
     <path d="M 6.296875 72.90625 
L 16.890625 72.90625 
L 35.015625 45.796875 
L 53.21875 72.90625 
L 63.8125 72.90625 
L 40.375 37.890625 
L 65.375 0 
L 54.78125 0 
L 34.28125 31 
L 13.625 0 
L 2.984375 0 
L 29 38.921875 
z
" id="DejaVuSans-88"/>
     <path d="M 4.890625 31.390625 
L 31.203125 31.390625 
L 31.203125 23.390625 
L 4.890625 23.390625 
z
" id="DejaVuSans-45"/>
     <path d="M 45.40625 46.390625 
L 45.40625 75.984375 
L 54.390625 75.984375 
L 54.390625 0 
L 45.40625 0 
L 45.40625 8.203125 
Q 42.578125 3.328125 38.25 0.953125 
Q 33.9375 -1.421875 27.875 -1.421875 
Q 17.96875 -1.421875 11.734375 6.484375 
Q 5.515625 14.40625 5.515625 27.296875 
Q 5.515625 40.1875 11.734375 48.09375 
Q 17.96875 56 27.875 56 
Q 33.9375 56 38.25 53.625 
Q 42.578125 51.265625 45.40625 46.390625 
z
M 14.796875 27.296875 
Q 14.796875 17.390625 18.875 11.75 
Q 22.953125 6.109375 30.078125 6.109375 
Q 37.203125 6.109375 41.296875 11.75 
Q 45.40625 17.390625 45.40625 27.296875 
Q 45.40625 37.203125 41.296875 42.84375 
Q 37.203125 48.484375 30.078125 48.484375 
Q 22.953125 48.484375 18.875 42.84375 
Q 14.796875 37.203125 14.796875 27.296875 
z
" id="DejaVuSans-100"/>
     <path d="M 9.421875 54.6875 
L 18.40625 54.6875 
L 18.40625 0 
L 9.421875 0 
z
M 9.421875 75.984375 
L 18.40625 75.984375 
L 18.40625 64.59375 
L 9.421875 64.59375 
z
" id="DejaVuSans-105"/>
     <path d="M 41.109375 46.296875 
Q 39.59375 47.171875 37.8125 47.578125 
Q 36.03125 48 33.890625 48 
Q 26.265625 48 22.1875 43.046875 
Q 18.109375 38.09375 18.109375 28.8125 
L 18.109375 0 
L 9.078125 0 
L 9.078125 54.6875 
L 18.109375 54.6875 
L 18.109375 46.1875 
Q 20.953125 51.171875 25.484375 53.578125 
Q 30.03125 56 36.53125 56 
Q 37.453125 56 38.578125 55.875 
Q 39.703125 55.765625 41.0625 55.515625 
z
" id="DejaVuSans-114"/>
     <path d="M 56.203125 29.59375 
L 56.203125 25.203125 
L 14.890625 25.203125 
Q 15.484375 15.921875 20.484375 11.0625 
Q 25.484375 6.203125 34.421875 6.203125 
Q 39.59375 6.203125 44.453125 7.46875 
Q 49.3125 8.734375 54.109375 11.28125 
L 54.109375 2.78125 
Q 49.265625 0.734375 44.1875 -0.34375 
Q 39.109375 -1.421875 33.890625 -1.421875 
Q 20.796875 -1.421875 13.15625 6.1875 
Q 5.515625 13.8125 5.515625 26.8125 
Q 5.515625 40.234375 12.765625 48.109375 
Q 20.015625 56 32.328125 56 
Q 43.359375 56 49.78125 48.890625 
Q 56.203125 41.796875 56.203125 29.59375 
z
M 47.21875 32.234375 
Q 47.125 39.59375 43.09375 43.984375 
Q 39.0625 48.390625 32.421875 48.390625 
Q 24.90625 48.390625 20.390625 44.140625 
Q 15.875 39.890625 15.1875 32.171875 
z
" id="DejaVuSans-101"/>
     <path d="M 48.78125 52.59375 
L 48.78125 44.1875 
Q 44.96875 46.296875 41.140625 47.34375 
Q 37.3125 48.390625 33.40625 48.390625 
Q 24.65625 48.390625 19.8125 42.84375 
Q 14.984375 37.3125 14.984375 27.296875 
Q 14.984375 17.28125 19.8125 11.734375 
Q 24.65625 6.203125 33.40625 6.203125 
Q 37.3125 6.203125 41.140625 7.25 
Q 44.96875 8.296875 48.78125 10.40625 
L 48.78125 2.09375 
Q 45.015625 0.34375 40.984375 -0.53125 
Q 36.96875 -1.421875 32.421875 -1.421875 
Q 20.0625 -1.421875 12.78125 6.34375 
Q 5.515625 14.109375 5.515625 27.296875 
Q 5.515625 40.671875 12.859375 48.328125 
Q 20.21875 56 33.015625 56 
Q 37.15625 56 41.109375 55.140625 
Q 45.0625 54.296875 48.78125 52.59375 
z
" id="DejaVuSans-99"/>
     <path d="M 18.3125 70.21875 
L 18.3125 54.6875 
L 36.8125 54.6875 
L 36.8125 47.703125 
L 18.3125 47.703125 
L 18.3125 18.015625 
Q 18.3125 11.328125 20.140625 9.421875 
Q 21.96875 7.515625 27.59375 7.515625 
L 36.8125 7.515625 
L 36.8125 0 
L 27.59375 0 
Q 17.1875 0 13.234375 3.875 
Q 9.28125 7.765625 9.28125 18.015625 
L 9.28125 47.703125 
L 2.6875 47.703125 
L 2.6875 54.6875 
L 9.28125 54.6875 
L 9.28125 70.21875 
z
" id="DejaVuSans-116"/>
     <path d="M 30.609375 48.390625 
Q 23.390625 48.390625 19.1875 42.75 
Q 14.984375 37.109375 14.984375 27.296875 
Q 14.984375 17.484375 19.15625 11.84375 
Q 23.34375 6.203125 30.609375 6.203125 
Q 37.796875 6.203125 41.984375 11.859375 
Q 46.1875 17.53125 46.1875 27.296875 
Q 46.1875 37.015625 41.984375 42.703125 
Q 37.796875 48.390625 30.609375 48.390625 
z
M 30.609375 56 
Q 42.328125 56 49.015625 48.375 
Q 55.71875 40.765625 55.71875 27.296875 
Q 55.71875 13.875 49.015625 6.21875 
Q 42.328125 -1.421875 30.609375 -1.421875 
Q 18.84375 -1.421875 12.171875 6.21875 
Q 5.515625 13.875 5.515625 27.296875 
Q 5.515625 40.765625 12.171875 48.375 
Q 18.84375 56 30.609375 56 
z
" id="DejaVuSans-111"/>
     <path d="M 54.890625 33.015625 
L 54.890625 0 
L 45.90625 0 
L 45.90625 32.71875 
Q 45.90625 40.484375 42.875 44.328125 
Q 39.84375 48.1875 33.796875 48.1875 
Q 26.515625 48.1875 22.3125 43.546875 
Q 18.109375 38.921875 18.109375 30.90625 
L 18.109375 0 
L 9.078125 0 
L 9.078125 54.6875 
L 18.109375 54.6875 
L 18.109375 46.1875 
Q 21.34375 51.125 25.703125 53.5625 
Q 30.078125 56 35.796875 56 
Q 45.21875 56 50.046875 50.171875 
Q 54.890625 44.34375 54.890625 33.015625 
z
" id="DejaVuSans-110"/>
    </defs>
    <g style="fill:#d62728;" transform="translate(160.530625 24.3)scale(0.12 -0.12)">
     <use xlink:href="#DejaVuSans-88"/>
     <use x="68.427734" xlink:href="#DejaVuSans-45"/>
     <use x="104.511719" xlink:href="#DejaVuSans-100"/>
     <use x="167.988281" xlink:href="#DejaVuSans-105"/>
     <use x="195.771484" xlink:href="#DejaVuSans-114"/>
     <use x="236.853516" xlink:href="#DejaVuSans-101"/>
     <use x="298.376953" xlink:href="#DejaVuSans-99"/>
     <use x="353.357422" xlink:href="#DejaVuSans-116"/>
     <use x="392.566406" xlink:href="#DejaVuSans-105"/>
     <use x="420.349609" xlink:href="#DejaVuSans-111"/>
     <use x="481.53125" xlink:href="#DejaVuSans-110"/>
    </g>
   </g>
  </g>
  <g id="axes_2">
   <g id="patch_7">
    <path d="M 377.575 332.2 
L 665.425 332.2 
L 665.425 30.3 
L 377.575 30.3 
z
" style="fill:#ffffff;"/>
   </g>
   <g id="matplotlib.axis_3">
    <g id="xtick_7">
     <g id="line2d_30">
      <path clip-path="url(#pdf4542143e)" d="M 390.569235 332.2 
L 390.569235 30.3 
" style="fill:none;stroke:#b0b0b0;stroke-linecap:square;stroke-width:0.5;"/>
     </g>
     <g id="line2d_31">
      <g>
       <use style="stroke:#000000;stroke-width:0.8;" x="390.569235" xlink:href="#m01063c803a" y="332.2"/>
      </g>
     </g>
     <g id="text_16">
      <!-- 0 -->
      <g transform="translate(387.387985 346.798438)scale(0.1 -0.1)">
       <use xlink:href="#DejaVuSans-48"/>
      </g>
     </g>
    </g>
    <g id="xtick_8">
     <g id="line2d_32">
      <path clip-path="url(#pdf4542143e)" d="M 442.92357 332.2 
L 442.92357 30.3 
" style="fill:none;stroke:#b0b0b0;stroke-linecap:square;stroke-width:0.5;"/>
     </g>
     <g id="line2d_33">
      <g>
       <use style="stroke:#000000;stroke-width:0.8;" x="442.92357" xlink:href="#m01063c803a" y="332.2"/>
      </g>
     </g>
     <g id="text_17">
      <!-- 200 -->
      <g transform="translate(433.37982 346.798438)scale(0.1 -0.1)">
       <use xlink:href="#DejaVuSans-50"/>
       <use x="63.623047" xlink:href="#DejaVuSans-48"/>
       <use x="127.246094" xlink:href="#DejaVuSans-48"/>
      </g>
     </g>
    </g>
    <g id="xtick_9">
     <g id="line2d_34">
      <path clip-path="url(#pdf4542143e)" d="M 495.277905 332.2 
L 495.277905 30.3 
" style="fill:none;stroke:#b0b0b0;stroke-linecap:square;stroke-width:0.5;"/>
     </g>
     <g id="line2d_35">
      <g>
       <use style="stroke:#000000;stroke-width:0.8;" x="495.277905" xlink:href="#m01063c803a" y="332.2"/>
      </g>
     </g>
     <g id="text_18">
      <!-- 400 -->
      <g transform="translate(485.734155 346.798438)scale(0.1 -0.1)">
       <use xlink:href="#DejaVuSans-52"/>
       <use x="63.623047" xlink:href="#DejaVuSans-48"/>
       <use x="127.246094" xlink:href="#DejaVuSans-48"/>
      </g>
     </g>
    </g>
    <g id="xtick_10">
     <g id="line2d_36">
      <path clip-path="url(#pdf4542143e)" d="M 547.63224 332.2 
L 547.63224 30.3 
" style="fill:none;stroke:#b0b0b0;stroke-linecap:square;stroke-width:0.5;"/>
     </g>
     <g id="line2d_37">
      <g>
       <use style="stroke:#000000;stroke-width:0.8;" x="547.63224" xlink:href="#m01063c803a" y="332.2"/>
      </g>
     </g>
     <g id="text_19">
      <!-- 600 -->
      <g transform="translate(538.08849 346.798438)scale(0.1 -0.1)">
       <use xlink:href="#DejaVuSans-54"/>
       <use x="63.623047" xlink:href="#DejaVuSans-48"/>
       <use x="127.246094" xlink:href="#DejaVuSans-48"/>
      </g>
     </g>
    </g>
    <g id="xtick_11">
     <g id="line2d_38">
      <path clip-path="url(#pdf4542143e)" d="M 599.986574 332.2 
L 599.986574 30.3 
" style="fill:none;stroke:#b0b0b0;stroke-linecap:square;stroke-width:0.5;"/>
     </g>
     <g id="line2d_39">
      <g>
       <use style="stroke:#000000;stroke-width:0.8;" x="599.986574" xlink:href="#m01063c803a" y="332.2"/>
      </g>
     </g>
     <g id="text_20">
      <!-- 800 -->
      <g transform="translate(590.442824 346.798438)scale(0.1 -0.1)">
       <use xlink:href="#DejaVuSans-56"/>
       <use x="63.623047" xlink:href="#DejaVuSans-48"/>
       <use x="127.246094" xlink:href="#DejaVuSans-48"/>
      </g>
     </g>
    </g>
    <g id="xtick_12">
     <g id="line2d_40">
      <path clip-path="url(#pdf4542143e)" d="M 652.340909 332.2 
L 652.340909 30.3 
" style="fill:none;stroke:#b0b0b0;stroke-linecap:square;stroke-width:0.5;"/>
     </g>
     <g id="line2d_41">
      <g>
       <use style="stroke:#000000;stroke-width:0.8;" x="652.340909" xlink:href="#m01063c803a" y="332.2"/>
      </g>
     </g>
     <g id="text_21">
      <!-- 1000 -->
      <g transform="translate(639.615909 346.798438)scale(0.1 -0.1)">
       <use xlink:href="#DejaVuSans-49"/>
       <use x="63.623047" xlink:href="#DejaVuSans-48"/>
       <use x="127.246094" xlink:href="#DejaVuSans-48"/>
       <use x="190.869141" xlink:href="#DejaVuSans-48"/>
      </g>
     </g>
    </g>
   </g>
   <g id="matplotlib.axis_4">
    <g id="ytick_9">
     <g id="line2d_42">
      <path clip-path="url(#pdf4542143e)" d="M 377.575 318.477286 
L 665.425 318.477286 
" style="fill:none;stroke:#b0b0b0;stroke-linecap:square;stroke-width:0.5;"/>
     </g>
     <g id="line2d_43">
      <g>
       <use style="stroke:#000000;stroke-width:0.8;" x="377.575" xlink:href="#ma7bd39e2bf" y="318.477286"/>
      </g>
     </g>
     <g id="text_22">
      <!-- 0.0 -->
      <defs>
       <path d="M 10.6875 12.40625 
L 21 12.40625 
L 21 0 
L 10.6875 0 
z
" id="DejaVuSans-46"/>
      </defs>
      <g transform="translate(354.671875 322.276505)scale(0.1 -0.1)">
       <use xlink:href="#DejaVuSans-48"/>
       <use x="63.623047" xlink:href="#DejaVuSans-46"/>
       <use x="95.410156" xlink:href="#DejaVuSans-48"/>
      </g>
     </g>
    </g>
    <g id="ytick_10">
     <g id="line2d_44">
      <path clip-path="url(#pdf4542143e)" d="M 377.575 264.314655 
L 665.425 264.314655 
" style="fill:none;stroke:#b0b0b0;stroke-linecap:square;stroke-width:0.5;"/>
     </g>
     <g id="line2d_45">
      <g>
       <use style="stroke:#000000;stroke-width:0.8;" x="377.575" xlink:href="#ma7bd39e2bf" y="264.314655"/>
      </g>
     </g>
     <g id="text_23">
      <!-- 0.5 -->
      <defs>
       <path d="M 10.796875 72.90625 
L 49.515625 72.90625 
L 49.515625 64.59375 
L 19.828125 64.59375 
L 19.828125 46.734375 
Q 21.96875 47.46875 24.109375 47.828125 
Q 26.265625 48.1875 28.421875 48.1875 
Q 40.625 48.1875 47.75 41.5 
Q 54.890625 34.8125 54.890625 23.390625 
Q 54.890625 11.625 47.5625 5.09375 
Q 40.234375 -1.421875 26.90625 -1.421875 
Q 22.3125 -1.421875 17.546875 -0.640625 
Q 12.796875 0.140625 7.71875 1.703125 
L 7.71875 11.625 
Q 12.109375 9.234375 16.796875 8.0625 
Q 21.484375 6.890625 26.703125 6.890625 
Q 35.15625 6.890625 40.078125 11.328125 
Q 45.015625 15.765625 45.015625 23.390625 
Q 45.015625 31 40.078125 35.4375 
Q 35.15625 39.890625 26.703125 39.890625 
Q 22.75 39.890625 18.8125 39.015625 
Q 14.890625 38.140625 10.796875 36.28125 
z
" id="DejaVuSans-53"/>
      </defs>
      <g transform="translate(354.671875 268.113874)scale(0.1 -0.1)">
       <use xlink:href="#DejaVuSans-48"/>
       <use x="63.623047" xlink:href="#DejaVuSans-46"/>
       <use x="95.410156" xlink:href="#DejaVuSans-53"/>
      </g>
     </g>
    </g>
    <g id="ytick_11">
     <g id="line2d_46">
      <path clip-path="url(#pdf4542143e)" d="M 377.575 210.152025 
L 665.425 210.152025 
" style="fill:none;stroke:#b0b0b0;stroke-linecap:square;stroke-width:0.5;"/>
     </g>
     <g id="line2d_47">
      <g>
       <use style="stroke:#000000;stroke-width:0.8;" x="377.575" xlink:href="#ma7bd39e2bf" y="210.152025"/>
      </g>
     </g>
     <g id="text_24">
      <!-- 1.0 -->
      <g transform="translate(354.671875 213.951243)scale(0.1 -0.1)">
       <use xlink:href="#DejaVuSans-49"/>
       <use x="63.623047" xlink:href="#DejaVuSans-46"/>
       <use x="95.410156" xlink:href="#DejaVuSans-48"/>
      </g>
     </g>
    </g>
    <g id="ytick_12">
     <g id="line2d_48">
      <path clip-path="url(#pdf4542143e)" d="M 377.575 155.989394 
L 665.425 155.989394 
" style="fill:none;stroke:#b0b0b0;stroke-linecap:square;stroke-width:0.5;"/>
     </g>
     <g id="line2d_49">
      <g>
       <use style="stroke:#000000;stroke-width:0.8;" x="377.575" xlink:href="#ma7bd39e2bf" y="155.989394"/>
      </g>
     </g>
     <g id="text_25">
      <!-- 1.5 -->
      <g transform="translate(354.671875 159.788613)scale(0.1 -0.1)">
       <use xlink:href="#DejaVuSans-49"/>
       <use x="63.623047" xlink:href="#DejaVuSans-46"/>
       <use x="95.410156" xlink:href="#DejaVuSans-53"/>
      </g>
     </g>
    </g>
    <g id="ytick_13">
     <g id="line2d_50">
      <path clip-path="url(#pdf4542143e)" d="M 377.575 101.826763 
L 665.425 101.826763 
" style="fill:none;stroke:#b0b0b0;stroke-linecap:square;stroke-width:0.5;"/>
     </g>
     <g id="line2d_51">
      <g>
       <use style="stroke:#000000;stroke-width:0.8;" x="377.575" xlink:href="#ma7bd39e2bf" y="101.826763"/>
      </g>
     </g>
     <g id="text_26">
      <!-- 2.0 -->
      <g transform="translate(354.671875 105.625982)scale(0.1 -0.1)">
       <use xlink:href="#DejaVuSans-50"/>
       <use x="63.623047" xlink:href="#DejaVuSans-46"/>
       <use x="95.410156" xlink:href="#DejaVuSans-48"/>
      </g>
     </g>
    </g>
    <g id="ytick_14">
     <g id="line2d_52">
      <path clip-path="url(#pdf4542143e)" d="M 377.575 47.664133 
L 665.425 47.664133 
" style="fill:none;stroke:#b0b0b0;stroke-linecap:square;stroke-width:0.5;"/>
     </g>
     <g id="line2d_53">
      <g>
       <use style="stroke:#000000;stroke-width:0.8;" x="377.575" xlink:href="#ma7bd39e2bf" y="47.664133"/>
      </g>
     </g>
     <g id="text_27">
      <!-- 2.5 -->
      <g transform="translate(354.671875 51.463352)scale(0.1 -0.1)">
       <use xlink:href="#DejaVuSans-50"/>
       <use x="63.623047" xlink:href="#DejaVuSans-46"/>
       <use x="95.410156" xlink:href="#DejaVuSans-53"/>
      </g>
     </g>
    </g>
   </g>
   <g id="line2d_54">
    <path clip-path="url(#pdf4542143e)" d="M 390.659091 318.477273 
L 398.925799 318.362916 
L 406.833083 318.034123 
L 414.201236 317.508023 
L 420.850538 316.812979 
L 426.691161 315.985674 
L 431.902773 315.027899 
L 436.485401 313.964689 
L 440.528909 312.804431 
L 444.123113 311.547799 
L 447.357904 310.18422 
L 450.233282 308.736055 
L 452.839115 307.179975 
L 455.265188 305.467687 
L 457.421742 303.6768 
L 459.398563 301.756083 
L 461.285518 299.610797 
L 462.992767 297.341525 
L 464.610175 294.831707 
L 466.137718 292.058963 
L 467.575394 289.001683 
L 469.013096 285.396475 
L 470.360933 281.384413 
L 471.618902 276.934031 
L 472.787032 272.018947 
L 473.955136 266.123224 
L 475.0334 259.514837 
L 476.021823 252.056978 
L 476.920381 243.456743 
L 477.639232 234.449078 
L 478.268217 223.868088 
L 478.897202 209.120775 
L 479.526187 188.24475 
L 480.245038 155.677141 
L 482.300705 55.328404 
L 482.725403 46.182603 
L 482.996756 44.084521 
L 483.064633 44.025771 
L 483.091884 44.054133 
L 483.284312 45.07683 
L 483.573779 49.15079 
L 483.96107 58.549804 
L 484.642776 81.804053 
L 486.418661 144.581895 
L 487.419702 171.080965 
L 488.329595 189.748859 
L 489.350609 206.031277 
L 490.382251 218.810804 
L 491.424704 229.013572 
L 492.478047 237.297879 
L 493.649423 244.747891 
L 494.834228 250.878763 
L 496.03275 256.000408 
L 497.355822 260.695917 
L 498.695543 264.664056 
L 500.165941 268.317899 
L 501.656233 271.439258 
L 503.283904 274.326282 
L 504.935395 276.817247 
L 506.731751 279.131005 
L 508.678939 281.270101 
L 510.783557 283.240772 
L 513.052908 285.051582 
L 515.494845 286.71227 
L 518.117955 288.233228 
L 521.066943 289.686629 
L 524.361916 291.058543 
L 528.025384 292.340786 
L 532.229987 293.569006 
L 537.018995 294.725983 
L 542.442564 295.801373 
L 548.722885 296.814177 
L 556.120684 297.772 
L 564.767159 298.65853 
L 575.01141 299.478574 
L 587.283685 300.232608 
L 602.343436 300.927711 
L 620.937235 301.556131 
L 644.571316 302.123155 
L 652.340909 302.270417 
L 652.340909 302.270417 
" style="fill:none;stroke:#8c564b;stroke-linecap:square;stroke-width:1.5;"/>
   </g>
   <g id="patch_8">
    <path d="M 377.575 332.2 
L 377.575 30.3 
" style="fill:none;stroke:#000000;stroke-linecap:square;stroke-linejoin:miter;stroke-width:0.8;"/>
   </g>
   <g id="patch_9">
    <path d="M 665.425 332.2 
L 665.425 30.3 
" style="fill:none;stroke:#000000;stroke-linecap:square;stroke-linejoin:miter;stroke-width:0.8;"/>
   </g>
   <g id="patch_10">
    <path d="M 377.575 332.2 
L 665.425 332.2 
" style="fill:none;stroke:#000000;stroke-linecap:square;stroke-linejoin:miter;stroke-width:0.8;"/>
   </g>
   <g id="patch_11">
    <path d="M 377.575 30.3 
L 665.425 30.3 
" style="fill:none;stroke:#000000;stroke-linecap:square;stroke-linejoin:miter;stroke-width:0.8;"/>
   </g>
   <g id="text_28">
    <!-- Y-direction -->
    <defs>
     <path d="M -0.203125 72.90625 
L 10.40625 72.90625 
L 30.609375 42.921875 
L 50.6875 72.90625 
L 61.28125 72.90625 
L 35.5 34.71875 
L 35.5 0 
L 25.59375 0 
L 25.59375 34.71875 
z
" id="DejaVuSans-89"/>
    </defs>
    <g style="fill:#8c564b;" transform="translate(489.256562 24.3)scale(0.12 -0.12)">
     <use xlink:href="#DejaVuSans-89"/>
     <use x="60.912109" xlink:href="#DejaVuSans-45"/>
     <use x="96.996094" xlink:href="#DejaVuSans-100"/>
     <use x="160.472656" xlink:href="#DejaVuSans-105"/>
     <use x="188.255859" xlink:href="#DejaVuSans-114"/>
     <use x="229.337891" xlink:href="#DejaVuSans-101"/>
     <use x="290.861328" xlink:href="#DejaVuSans-99"/>
     <use x="345.841797" xlink:href="#DejaVuSans-116"/>
     <use x="385.050781" xlink:href="#DejaVuSans-105"/>
     <use x="412.833984" xlink:href="#DejaVuSans-111"/>
     <use x="474.015625" xlink:href="#DejaVuSans-110"/>
    </g>
   </g>
  </g>
  <g id="axes_3">
   <g id="patch_12">
    <path d="M 705.85 332.2 
L 993.7 332.2 
L 993.7 30.3 
L 705.85 30.3 
z
" style="fill:#ffffff;"/>
   </g>
   <g id="matplotlib.axis_5">
    <g id="xtick_13">
     <g id="line2d_55">
      <path clip-path="url(#pac223e6e5d)" d="M 718.844235 332.2 
L 718.844235 30.3 
" style="fill:none;stroke:#b0b0b0;stroke-linecap:square;stroke-width:0.5;"/>
     </g>
     <g id="line2d_56">
      <g>
       <use style="stroke:#000000;stroke-width:0.8;" x="718.844235" xlink:href="#m01063c803a" y="332.2"/>
      </g>
     </g>
     <g id="text_29">
      <!-- 0 -->
      <g transform="translate(715.662985 346.798438)scale(0.1 -0.1)">
       <use xlink:href="#DejaVuSans-48"/>
      </g>
     </g>
    </g>
    <g id="xtick_14">
     <g id="line2d_57">
      <path clip-path="url(#pac223e6e5d)" d="M 771.19857 332.2 
L 771.19857 30.3 
" style="fill:none;stroke:#b0b0b0;stroke-linecap:square;stroke-width:0.5;"/>
     </g>
     <g id="line2d_58">
      <g>
       <use style="stroke:#000000;stroke-width:0.8;" x="771.19857" xlink:href="#m01063c803a" y="332.2"/>
      </g>
     </g>
     <g id="text_30">
      <!-- 200 -->
      <g transform="translate(761.65482 346.798438)scale(0.1 -0.1)">
       <use xlink:href="#DejaVuSans-50"/>
       <use x="63.623047" xlink:href="#DejaVuSans-48"/>
       <use x="127.246094" xlink:href="#DejaVuSans-48"/>
      </g>
     </g>
    </g>
    <g id="xtick_15">
     <g id="line2d_59">
      <path clip-path="url(#pac223e6e5d)" d="M 823.552905 332.2 
L 823.552905 30.3 
" style="fill:none;stroke:#b0b0b0;stroke-linecap:square;stroke-width:0.5;"/>
     </g>
     <g id="line2d_60">
      <g>
       <use style="stroke:#000000;stroke-width:0.8;" x="823.552905" xlink:href="#m01063c803a" y="332.2"/>
      </g>
     </g>
     <g id="text_31">
      <!-- 400 -->
      <g transform="translate(814.009155 346.798438)scale(0.1 -0.1)">
       <use xlink:href="#DejaVuSans-52"/>
       <use x="63.623047" xlink:href="#DejaVuSans-48"/>
       <use x="127.246094" xlink:href="#DejaVuSans-48"/>
      </g>
     </g>
    </g>
    <g id="xtick_16">
     <g id="line2d_61">
      <path clip-path="url(#pac223e6e5d)" d="M 875.90724 332.2 
L 875.90724 30.3 
" style="fill:none;stroke:#b0b0b0;stroke-linecap:square;stroke-width:0.5;"/>
     </g>
     <g id="line2d_62">
      <g>
       <use style="stroke:#000000;stroke-width:0.8;" x="875.90724" xlink:href="#m01063c803a" y="332.2"/>
      </g>
     </g>
     <g id="text_32">
      <!-- 600 -->
      <g transform="translate(866.36349 346.798438)scale(0.1 -0.1)">
       <use xlink:href="#DejaVuSans-54"/>
       <use x="63.623047" xlink:href="#DejaVuSans-48"/>
       <use x="127.246094" xlink:href="#DejaVuSans-48"/>
      </g>
     </g>
    </g>
    <g id="xtick_17">
     <g id="line2d_63">
      <path clip-path="url(#pac223e6e5d)" d="M 928.261574 332.2 
L 928.261574 30.3 
" style="fill:none;stroke:#b0b0b0;stroke-linecap:square;stroke-width:0.5;"/>
     </g>
     <g id="line2d_64">
      <g>
       <use style="stroke:#000000;stroke-width:0.8;" x="928.261574" xlink:href="#m01063c803a" y="332.2"/>
      </g>
     </g>
     <g id="text_33">
      <!-- 800 -->
      <g transform="translate(918.717824 346.798438)scale(0.1 -0.1)">
       <use xlink:href="#DejaVuSans-56"/>
       <use x="63.623047" xlink:href="#DejaVuSans-48"/>
       <use x="127.246094" xlink:href="#DejaVuSans-48"/>
      </g>
     </g>
    </g>
    <g id="xtick_18">
     <g id="line2d_65">
      <path clip-path="url(#pac223e6e5d)" d="M 980.615909 332.2 
L 980.615909 30.3 
" style="fill:none;stroke:#b0b0b0;stroke-linecap:square;stroke-width:0.5;"/>
     </g>
     <g id="line2d_66">
      <g>
       <use style="stroke:#000000;stroke-width:0.8;" x="980.615909" xlink:href="#m01063c803a" y="332.2"/>
      </g>
     </g>
     <g id="text_34">
      <!-- 1000 -->
      <g transform="translate(967.890909 346.798438)scale(0.1 -0.1)">
       <use xlink:href="#DejaVuSans-49"/>
       <use x="63.623047" xlink:href="#DejaVuSans-48"/>
       <use x="127.246094" xlink:href="#DejaVuSans-48"/>
       <use x="190.869141" xlink:href="#DejaVuSans-48"/>
      </g>
     </g>
    </g>
   </g>
   <g id="matplotlib.axis_6">
    <g id="ytick_15">
     <g id="line2d_67">
      <path clip-path="url(#pac223e6e5d)" d="M 705.85 318.477274 
L 993.7 318.477274 
" style="fill:none;stroke:#b0b0b0;stroke-linecap:square;stroke-width:0.5;"/>
     </g>
     <g id="line2d_68">
      <g>
       <use style="stroke:#000000;stroke-width:0.8;" x="705.85" xlink:href="#ma7bd39e2bf" y="318.477274"/>
      </g>
     </g>
     <g id="text_35">
      <!-- 0 -->
      <g transform="translate(692.4875 322.276493)scale(0.1 -0.1)">
       <use xlink:href="#DejaVuSans-48"/>
      </g>
     </g>
    </g>
    <g id="ytick_16">
     <g id="line2d_69">
      <path clip-path="url(#pac223e6e5d)" d="M 705.85 283.020942 
L 993.7 283.020942 
" style="fill:none;stroke:#b0b0b0;stroke-linecap:square;stroke-width:0.5;"/>
     </g>
     <g id="line2d_70">
      <g>
       <use style="stroke:#000000;stroke-width:0.8;" x="705.85" xlink:href="#ma7bd39e2bf" y="283.020942"/>
      </g>
     </g>
     <g id="text_36">
      <!-- 25 -->
      <g transform="translate(686.125 286.820161)scale(0.1 -0.1)">
       <use xlink:href="#DejaVuSans-50"/>
       <use x="63.623047" xlink:href="#DejaVuSans-53"/>
      </g>
     </g>
    </g>
    <g id="ytick_17">
     <g id="line2d_71">
      <path clip-path="url(#pac223e6e5d)" d="M 705.85 247.564609 
L 993.7 247.564609 
" style="fill:none;stroke:#b0b0b0;stroke-linecap:square;stroke-width:0.5;"/>
     </g>
     <g id="line2d_72">
      <g>
       <use style="stroke:#000000;stroke-width:0.8;" x="705.85" xlink:href="#ma7bd39e2bf" y="247.564609"/>
      </g>
     </g>
     <g id="text_37">
      <!-- 50 -->
      <g transform="translate(686.125 251.363828)scale(0.1 -0.1)">
       <use xlink:href="#DejaVuSans-53"/>
       <use x="63.623047" xlink:href="#DejaVuSans-48"/>
      </g>
     </g>
    </g>
    <g id="ytick_18">
     <g id="line2d_73">
      <path clip-path="url(#pac223e6e5d)" d="M 705.85 212.108277 
L 993.7 212.108277 
" style="fill:none;stroke:#b0b0b0;stroke-linecap:square;stroke-width:0.5;"/>
     </g>
     <g id="line2d_74">
      <g>
       <use style="stroke:#000000;stroke-width:0.8;" x="705.85" xlink:href="#ma7bd39e2bf" y="212.108277"/>
      </g>
     </g>
     <g id="text_38">
      <!-- 75 -->
      <defs>
       <path d="M 8.203125 72.90625 
L 55.078125 72.90625 
L 55.078125 68.703125 
L 28.609375 0 
L 18.3125 0 
L 43.21875 64.59375 
L 8.203125 64.59375 
z
" id="DejaVuSans-55"/>
      </defs>
      <g transform="translate(686.125 215.907495)scale(0.1 -0.1)">
       <use xlink:href="#DejaVuSans-55"/>
       <use x="63.623047" xlink:href="#DejaVuSans-53"/>
      </g>
     </g>
    </g>
    <g id="ytick_19">
     <g id="line2d_75">
      <path clip-path="url(#pac223e6e5d)" d="M 705.85 176.651944 
L 993.7 176.651944 
" style="fill:none;stroke:#b0b0b0;stroke-linecap:square;stroke-width:0.5;"/>
     </g>
     <g id="line2d_76">
      <g>
       <use style="stroke:#000000;stroke-width:0.8;" x="705.85" xlink:href="#ma7bd39e2bf" y="176.651944"/>
      </g>
     </g>
     <g id="text_39">
      <!-- 100 -->
      <g transform="translate(679.7625 180.451163)scale(0.1 -0.1)">
       <use xlink:href="#DejaVuSans-49"/>
       <use x="63.623047" xlink:href="#DejaVuSans-48"/>
       <use x="127.246094" xlink:href="#DejaVuSans-48"/>
      </g>
     </g>
    </g>
    <g id="ytick_20">
     <g id="line2d_77">
      <path clip-path="url(#pac223e6e5d)" d="M 705.85 141.195612 
L 993.7 141.195612 
" style="fill:none;stroke:#b0b0b0;stroke-linecap:square;stroke-width:0.5;"/>
     </g>
     <g id="line2d_78">
      <g>
       <use style="stroke:#000000;stroke-width:0.8;" x="705.85" xlink:href="#ma7bd39e2bf" y="141.195612"/>
      </g>
     </g>
     <g id="text_40">
      <!-- 125 -->
      <g transform="translate(679.7625 144.99483)scale(0.1 -0.1)">
       <use xlink:href="#DejaVuSans-49"/>
       <use x="63.623047" xlink:href="#DejaVuSans-50"/>
       <use x="127.246094" xlink:href="#DejaVuSans-53"/>
      </g>
     </g>
    </g>
    <g id="ytick_21">
     <g id="line2d_79">
      <path clip-path="url(#pac223e6e5d)" d="M 705.85 105.739279 
L 993.7 105.739279 
" style="fill:none;stroke:#b0b0b0;stroke-linecap:square;stroke-width:0.5;"/>
     </g>
     <g id="line2d_80">
      <g>
       <use style="stroke:#000000;stroke-width:0.8;" x="705.85" xlink:href="#ma7bd39e2bf" y="105.739279"/>
      </g>
     </g>
     <g id="text_41">
      <!-- 150 -->
      <g transform="translate(679.7625 109.538498)scale(0.1 -0.1)">
       <use xlink:href="#DejaVuSans-49"/>
       <use x="63.623047" xlink:href="#DejaVuSans-53"/>
       <use x="127.246094" xlink:href="#DejaVuSans-48"/>
      </g>
     </g>
    </g>
    <g id="ytick_22">
     <g id="line2d_81">
      <path clip-path="url(#pac223e6e5d)" d="M 705.85 70.282946 
L 993.7 70.282946 
" style="fill:none;stroke:#b0b0b0;stroke-linecap:square;stroke-width:0.5;"/>
     </g>
     <g id="line2d_82">
      <g>
       <use style="stroke:#000000;stroke-width:0.8;" x="705.85" xlink:href="#ma7bd39e2bf" y="70.282946"/>
      </g>
     </g>
     <g id="text_42">
      <!-- 175 -->
      <g transform="translate(679.7625 74.082165)scale(0.1 -0.1)">
       <use xlink:href="#DejaVuSans-49"/>
       <use x="63.623047" xlink:href="#DejaVuSans-55"/>
       <use x="127.246094" xlink:href="#DejaVuSans-53"/>
      </g>
     </g>
    </g>
    <g id="ytick_23">
     <g id="line2d_83">
      <path clip-path="url(#pac223e6e5d)" d="M 705.85 34.826614 
L 993.7 34.826614 
" style="fill:none;stroke:#b0b0b0;stroke-linecap:square;stroke-width:0.5;"/>
     </g>
     <g id="line2d_84">
      <g>
       <use style="stroke:#000000;stroke-width:0.8;" x="705.85" xlink:href="#ma7bd39e2bf" y="34.826614"/>
      </g>
     </g>
     <g id="text_43">
      <!-- 200 -->
      <g transform="translate(679.7625 38.625833)scale(0.1 -0.1)">
       <use xlink:href="#DejaVuSans-50"/>
       <use x="63.623047" xlink:href="#DejaVuSans-48"/>
       <use x="127.246094" xlink:href="#DejaVuSans-48"/>
      </g>
     </g>
    </g>
   </g>
   <g id="line2d_85">
    <path clip-path="url(#pac223e6e5d)" d="M 718.934091 318.477273 
L 740.589268 318.365867 
L 756.224131 318.080894 
L 766.557515 317.685188 
L 773.656083 317.206603 
L 778.867721 316.646502 
L 782.911203 315.994933 
L 786.056154 315.27028 
L 788.572094 314.474794 
L 790.728648 313.563019 
L 792.525763 312.5676 
L 794.053305 311.483272 
L 795.490981 310.184579 
L 796.748951 308.744635 
L 797.917081 307.060826 
L 798.995345 305.104242 
L 799.983769 302.851574 
L 800.972166 300.001448 
L 801.870724 296.703179 
L 802.769281 292.474347 
L 803.577972 287.566857 
L 804.38669 281.195872 
L 805.105515 273.807782 
L 805.824366 264.103959 
L 806.543217 251.040088 
L 807.172202 235.580075 
L 807.801187 214.732023 
L 808.430172 186.769278 
L 809.25847 138.218847 
L 810.645938 55.153167 
L 811.007681 45.481225 
L 811.208878 44.022762 
L 811.219611 44.028132 
L 811.278588 44.207715 
L 811.366884 44.95043 
L 811.559312 48.488311 
L 811.848779 58.336675 
L 812.333188 83.923798 
L 814.296161 199.673792 
L 815.092863 229.857526 
L 815.896162 251.394049 
L 816.706241 266.76238 
L 817.523021 277.876044 
L 818.346659 286.061767 
L 819.17713 292.206475 
L 820.014563 296.90541 
L 820.96503 300.958365 
L 821.924423 304.073348 
L 822.892821 306.509094 
L 823.979514 308.633453 
L 825.077568 310.306179 
L 826.298628 311.761191 
L 827.646726 313.009012 
L 829.126259 314.067455 
L 830.858455 315.013348 
L 832.854464 315.830005 
L 835.127454 316.516583 
L 837.939693 317.127041 
L 841.45526 317.649761 
L 845.73206 318.052619 
L 850.021634 318.2444 
L 854.597245 318.208331 
L 876.505754 317.827332 
L 902.712476 317.677199 
L 973.904083 317.587918 
L 980.615909 317.585263 
L 980.615909 317.585263 
" style="fill:none;stroke:#1f77b4;stroke-linecap:square;stroke-width:1.5;"/>
   </g>
   <g id="patch_13">
    <path d="M 705.85 332.2 
L 705.85 30.3 
" style="fill:none;stroke:#000000;stroke-linecap:square;stroke-linejoin:miter;stroke-width:0.8;"/>
   </g>
   <g id="patch_14">
    <path d="M 993.7 332.2 
L 993.7 30.3 
" style="fill:none;stroke:#000000;stroke-linecap:square;stroke-linejoin:miter;stroke-width:0.8;"/>
   </g>
   <g id="patch_15">
    <path d="M 705.85 332.2 
L 993.7 332.2 
" style="fill:none;stroke:#000000;stroke-linecap:square;stroke-linejoin:miter;stroke-width:0.8;"/>
   </g>
   <g id="patch_16">
    <path d="M 705.85 30.3 
L 993.7 30.3 
" style="fill:none;stroke:#000000;stroke-linecap:square;stroke-linejoin:miter;stroke-width:0.8;"/>
   </g>
   <g id="text_44">
    <!-- Z-direction -->
    <defs>
     <path d="M 5.609375 72.90625 
L 62.890625 72.90625 
L 62.890625 65.375 
L 16.796875 8.296875 
L 64.015625 8.296875 
L 64.015625 0 
L 4.5 0 
L 4.5 7.515625 
L 50.59375 64.59375 
L 5.609375 64.59375 
z
" id="DejaVuSans-90"/>
    </defs>
    <g style="fill:#1f77b4;" transform="translate(817.076875 24.3)scale(0.12 -0.12)">
     <use xlink:href="#DejaVuSans-90"/>
     <use x="68.490234" xlink:href="#DejaVuSans-45"/>
     <use x="104.574219" xlink:href="#DejaVuSans-100"/>
     <use x="168.050781" xlink:href="#DejaVuSans-105"/>
     <use x="195.833984" xlink:href="#DejaVuSans-114"/>
     <use x="236.916016" xlink:href="#DejaVuSans-101"/>
     <use x="298.439453" xlink:href="#DejaVuSans-99"/>
     <use x="353.419922" xlink:href="#DejaVuSans-116"/>
     <use x="392.628906" xlink:href="#DejaVuSans-105"/>
     <use x="420.412109" xlink:href="#DejaVuSans-111"/>
     <use x="481.59375" xlink:href="#DejaVuSans-110"/>
    </g>
   </g>
  </g>
  <g id="text_45">
   <!-- Transmissability analysis. Input direction X: Bottom node -->
   <defs>
    <path d="M -0.296875 72.90625 
L 61.375 72.90625 
L 61.375 64.59375 
L 35.5 64.59375 
L 35.5 0 
L 25.59375 0 
L 25.59375 64.59375 
L -0.296875 64.59375 
z
" id="DejaVuSans-84"/>
    <path d="M 34.28125 27.484375 
Q 23.390625 27.484375 19.1875 25 
Q 14.984375 22.515625 14.984375 16.5 
Q 14.984375 11.71875 18.140625 8.90625 
Q 21.296875 6.109375 26.703125 6.109375 
Q 34.1875 6.109375 38.703125 11.40625 
Q 43.21875 16.703125 43.21875 25.484375 
L 43.21875 27.484375 
z
M 52.203125 31.203125 
L 52.203125 0 
L 43.21875 0 
L 43.21875 8.296875 
Q 40.140625 3.328125 35.546875 0.953125 
Q 30.953125 -1.421875 24.3125 -1.421875 
Q 15.921875 -1.421875 10.953125 3.296875 
Q 6 8.015625 6 15.921875 
Q 6 25.140625 12.171875 29.828125 
Q 18.359375 34.515625 30.609375 34.515625 
L 43.21875 34.515625 
L 43.21875 35.40625 
Q 43.21875 41.609375 39.140625 45 
Q 35.0625 48.390625 27.6875 48.390625 
Q 23 48.390625 18.546875 47.265625 
Q 14.109375 46.140625 10.015625 43.890625 
L 10.015625 52.203125 
Q 14.9375 54.109375 19.578125 55.046875 
Q 24.21875 56 28.609375 56 
Q 40.484375 56 46.34375 49.84375 
Q 52.203125 43.703125 52.203125 31.203125 
z
" id="DejaVuSans-97"/>
    <path d="M 44.28125 53.078125 
L 44.28125 44.578125 
Q 40.484375 46.53125 36.375 47.5 
Q 32.28125 48.484375 27.875 48.484375 
Q 21.1875 48.484375 17.84375 46.4375 
Q 14.5 44.390625 14.5 40.28125 
Q 14.5 37.15625 16.890625 35.375 
Q 19.28125 33.59375 26.515625 31.984375 
L 29.59375 31.296875 
Q 39.15625 29.25 43.1875 25.515625 
Q 47.21875 21.78125 47.21875 15.09375 
Q 47.21875 7.46875 41.1875 3.015625 
Q 35.15625 -1.421875 24.609375 -1.421875 
Q 20.21875 -1.421875 15.453125 -0.5625 
Q 10.6875 0.296875 5.421875 2 
L 5.421875 11.28125 
Q 10.40625 8.6875 15.234375 7.390625 
Q 20.0625 6.109375 24.8125 6.109375 
Q 31.15625 6.109375 34.5625 8.28125 
Q 37.984375 10.453125 37.984375 14.40625 
Q 37.984375 18.0625 35.515625 20.015625 
Q 33.0625 21.96875 24.703125 23.78125 
L 21.578125 24.515625 
Q 13.234375 26.265625 9.515625 29.90625 
Q 5.8125 33.546875 5.8125 39.890625 
Q 5.8125 47.609375 11.28125 51.796875 
Q 16.75 56 26.8125 56 
Q 31.78125 56 36.171875 55.265625 
Q 40.578125 54.546875 44.28125 53.078125 
z
" id="DejaVuSans-115"/>
    <path d="M 52 44.1875 
Q 55.375 50.25 60.0625 53.125 
Q 64.75 56 71.09375 56 
Q 79.640625 56 84.28125 50.015625 
Q 88.921875 44.046875 88.921875 33.015625 
L 88.921875 0 
L 79.890625 0 
L 79.890625 32.71875 
Q 79.890625 40.578125 77.09375 44.375 
Q 74.3125 48.1875 68.609375 48.1875 
Q 61.625 48.1875 57.5625 43.546875 
Q 53.515625 38.921875 53.515625 30.90625 
L 53.515625 0 
L 44.484375 0 
L 44.484375 32.71875 
Q 44.484375 40.625 41.703125 44.40625 
Q 38.921875 48.1875 33.109375 48.1875 
Q 26.21875 48.1875 22.15625 43.53125 
Q 18.109375 38.875 18.109375 30.90625 
L 18.109375 0 
L 9.078125 0 
L 9.078125 54.6875 
L 18.109375 54.6875 
L 18.109375 46.1875 
Q 21.1875 51.21875 25.484375 53.609375 
Q 29.78125 56 35.6875 56 
Q 41.65625 56 45.828125 52.96875 
Q 50 49.953125 52 44.1875 
z
" id="DejaVuSans-109"/>
    <path d="M 48.6875 27.296875 
Q 48.6875 37.203125 44.609375 42.84375 
Q 40.53125 48.484375 33.40625 48.484375 
Q 26.265625 48.484375 22.1875 42.84375 
Q 18.109375 37.203125 18.109375 27.296875 
Q 18.109375 17.390625 22.1875 11.75 
Q 26.265625 6.109375 33.40625 6.109375 
Q 40.53125 6.109375 44.609375 11.75 
Q 48.6875 17.390625 48.6875 27.296875 
z
M 18.109375 46.390625 
Q 20.953125 51.265625 25.265625 53.625 
Q 29.59375 56 35.59375 56 
Q 45.5625 56 51.78125 48.09375 
Q 58.015625 40.1875 58.015625 27.296875 
Q 58.015625 14.40625 51.78125 6.484375 
Q 45.5625 -1.421875 35.59375 -1.421875 
Q 29.59375 -1.421875 25.265625 0.953125 
Q 20.953125 3.328125 18.109375 8.203125 
L 18.109375 0 
L 9.078125 0 
L 9.078125 75.984375 
L 18.109375 75.984375 
z
" id="DejaVuSans-98"/>
    <path d="M 9.421875 75.984375 
L 18.40625 75.984375 
L 18.40625 0 
L 9.421875 0 
z
" id="DejaVuSans-108"/>
    <path d="M 32.171875 -5.078125 
Q 28.375 -14.84375 24.75 -17.8125 
Q 21.140625 -20.796875 15.09375 -20.796875 
L 7.90625 -20.796875 
L 7.90625 -13.28125 
L 13.1875 -13.28125 
Q 16.890625 -13.28125 18.9375 -11.515625 
Q 21 -9.765625 23.484375 -3.21875 
L 25.09375 0.875 
L 2.984375 54.6875 
L 12.5 54.6875 
L 29.59375 11.921875 
L 46.6875 54.6875 
L 56.203125 54.6875 
z
" id="DejaVuSans-121"/>
    <path id="DejaVuSans-32"/>
    <path d="M 9.8125 72.90625 
L 19.671875 72.90625 
L 19.671875 0 
L 9.8125 0 
z
" id="DejaVuSans-73"/>
    <path d="M 18.109375 8.203125 
L 18.109375 -20.796875 
L 9.078125 -20.796875 
L 9.078125 54.6875 
L 18.109375 54.6875 
L 18.109375 46.390625 
Q 20.953125 51.265625 25.265625 53.625 
Q 29.59375 56 35.59375 56 
Q 45.5625 56 51.78125 48.09375 
Q 58.015625 40.1875 58.015625 27.296875 
Q 58.015625 14.40625 51.78125 6.484375 
Q 45.5625 -1.421875 35.59375 -1.421875 
Q 29.59375 -1.421875 25.265625 0.953125 
Q 20.953125 3.328125 18.109375 8.203125 
z
M 48.6875 27.296875 
Q 48.6875 37.203125 44.609375 42.84375 
Q 40.53125 48.484375 33.40625 48.484375 
Q 26.265625 48.484375 22.1875 42.84375 
Q 18.109375 37.203125 18.109375 27.296875 
Q 18.109375 17.390625 22.1875 11.75 
Q 26.265625 6.109375 33.40625 6.109375 
Q 40.53125 6.109375 44.609375 11.75 
Q 48.6875 17.390625 48.6875 27.296875 
z
" id="DejaVuSans-112"/>
    <path d="M 8.5 21.578125 
L 8.5 54.6875 
L 17.484375 54.6875 
L 17.484375 21.921875 
Q 17.484375 14.15625 20.5 10.265625 
Q 23.53125 6.390625 29.59375 6.390625 
Q 36.859375 6.390625 41.078125 11.03125 
Q 45.3125 15.671875 45.3125 23.6875 
L 45.3125 54.6875 
L 54.296875 54.6875 
L 54.296875 0 
L 45.3125 0 
L 45.3125 8.40625 
Q 42.046875 3.421875 37.71875 1 
Q 33.40625 -1.421875 27.6875 -1.421875 
Q 18.265625 -1.421875 13.375 4.4375 
Q 8.5 10.296875 8.5 21.578125 
z
M 31.109375 56 
z
" id="DejaVuSans-117"/>
    <path d="M 11.71875 12.40625 
L 22.015625 12.40625 
L 22.015625 0 
L 11.71875 0 
z
M 11.71875 51.703125 
L 22.015625 51.703125 
L 22.015625 39.3125 
L 11.71875 39.3125 
z
" id="DejaVuSans-58"/>
    <path d="M 19.671875 34.8125 
L 19.671875 8.109375 
L 35.5 8.109375 
Q 43.453125 8.109375 47.28125 11.40625 
Q 51.125 14.703125 51.125 21.484375 
Q 51.125 28.328125 47.28125 31.5625 
Q 43.453125 34.8125 35.5 34.8125 
z
M 19.671875 64.796875 
L 19.671875 42.828125 
L 34.28125 42.828125 
Q 41.5 42.828125 45.03125 45.53125 
Q 48.578125 48.25 48.578125 53.8125 
Q 48.578125 59.328125 45.03125 62.0625 
Q 41.5 64.796875 34.28125 64.796875 
z
M 9.8125 72.90625 
L 35.015625 72.90625 
Q 46.296875 72.90625 52.390625 68.21875 
Q 58.5 63.53125 58.5 54.890625 
Q 58.5 48.1875 55.375 44.234375 
Q 52.25 40.28125 46.1875 39.3125 
Q 53.46875 37.75 57.5 32.78125 
Q 61.53125 27.828125 61.53125 20.40625 
Q 61.53125 10.640625 54.890625 5.3125 
Q 48.25 0 35.984375 0 
L 9.8125 0 
z
" id="DejaVuSans-66"/>
   </defs>
   <g transform="translate(298.09125 3.74175)scale(0.144 -0.144)">
    <use xlink:href="#DejaVuSans-84"/>
    <use x="60.865234" xlink:href="#DejaVuSans-114"/>
    <use x="101.978516" xlink:href="#DejaVuSans-97"/>
    <use x="163.257812" xlink:href="#DejaVuSans-110"/>
    <use x="226.636719" xlink:href="#DejaVuSans-115"/>
    <use x="278.736328" xlink:href="#DejaVuSans-109"/>
    <use x="376.148438" xlink:href="#DejaVuSans-105"/>
    <use x="403.931641" xlink:href="#DejaVuSans-115"/>
    <use x="456.03125" xlink:href="#DejaVuSans-115"/>
    <use x="508.130859" xlink:href="#DejaVuSans-97"/>
    <use x="569.410156" xlink:href="#DejaVuSans-98"/>
    <use x="632.886719" xlink:href="#DejaVuSans-105"/>
    <use x="660.669922" xlink:href="#DejaVuSans-108"/>
    <use x="688.453125" xlink:href="#DejaVuSans-105"/>
    <use x="716.236328" xlink:href="#DejaVuSans-116"/>
    <use x="755.445312" xlink:href="#DejaVuSans-121"/>
    <use x="814.625" xlink:href="#DejaVuSans-32"/>
    <use x="846.412109" xlink:href="#DejaVuSans-97"/>
    <use x="907.691406" xlink:href="#DejaVuSans-110"/>
    <use x="971.070312" xlink:href="#DejaVuSans-97"/>
    <use x="1032.349609" xlink:href="#DejaVuSans-108"/>
    <use x="1060.132812" xlink:href="#DejaVuSans-121"/>
    <use x="1119.3125" xlink:href="#DejaVuSans-115"/>
    <use x="1171.412109" xlink:href="#DejaVuSans-105"/>
    <use x="1199.195312" xlink:href="#DejaVuSans-115"/>
    <use x="1251.294922" xlink:href="#DejaVuSans-46"/>
    <use x="1283.082031" xlink:href="#DejaVuSans-32"/>
    <use x="1314.869141" xlink:href="#DejaVuSans-73"/>
    <use x="1344.361328" xlink:href="#DejaVuSans-110"/>
    <use x="1407.740234" xlink:href="#DejaVuSans-112"/>
    <use x="1471.216797" xlink:href="#DejaVuSans-117"/>
    <use x="1534.595703" xlink:href="#DejaVuSans-116"/>
    <use x="1573.804688" xlink:href="#DejaVuSans-32"/>
    <use x="1605.591797" xlink:href="#DejaVuSans-100"/>
    <use x="1669.068359" xlink:href="#DejaVuSans-105"/>
    <use x="1696.851562" xlink:href="#DejaVuSans-114"/>
    <use x="1737.933594" xlink:href="#DejaVuSans-101"/>
    <use x="1799.457031" xlink:href="#DejaVuSans-99"/>
    <use x="1854.4375" xlink:href="#DejaVuSans-116"/>
    <use x="1893.646484" xlink:href="#DejaVuSans-105"/>
    <use x="1921.429688" xlink:href="#DejaVuSans-111"/>
    <use x="1982.611328" xlink:href="#DejaVuSans-110"/>
    <use x="2045.990234" xlink:href="#DejaVuSans-32"/>
    <use x="2077.777344" xlink:href="#DejaVuSans-88"/>
    <use x="2146.283203" xlink:href="#DejaVuSans-58"/>
    <use x="2179.974609" xlink:href="#DejaVuSans-32"/>
    <use x="2211.761719" xlink:href="#DejaVuSans-66"/>
    <use x="2280.365234" xlink:href="#DejaVuSans-111"/>
    <use x="2341.546875" xlink:href="#DejaVuSans-116"/>
    <use x="2380.755859" xlink:href="#DejaVuSans-116"/>
    <use x="2419.964844" xlink:href="#DejaVuSans-111"/>
    <use x="2481.146484" xlink:href="#DejaVuSans-109"/>
    <use x="2578.558594" xlink:href="#DejaVuSans-32"/>
    <use x="2610.345703" xlink:href="#DejaVuSans-110"/>
    <use x="2673.724609" xlink:href="#DejaVuSans-111"/>
    <use x="2734.90625" xlink:href="#DejaVuSans-100"/>
    <use x="2798.382812" xlink:href="#DejaVuSans-101"/>
   </g>
  </g>
  <g id="text_46">
   <!-- Frequency [Hz] -->
   <defs>
    <path d="M 9.8125 72.90625 
L 51.703125 72.90625 
L 51.703125 64.59375 
L 19.671875 64.59375 
L 19.671875 43.109375 
L 48.578125 43.109375 
L 48.578125 34.8125 
L 19.671875 34.8125 
L 19.671875 0 
L 9.8125 0 
z
" id="DejaVuSans-70"/>
    <path d="M 14.796875 27.296875 
Q 14.796875 17.390625 18.875 11.75 
Q 22.953125 6.109375 30.078125 6.109375 
Q 37.203125 6.109375 41.296875 11.75 
Q 45.40625 17.390625 45.40625 27.296875 
Q 45.40625 37.203125 41.296875 42.84375 
Q 37.203125 48.484375 30.078125 48.484375 
Q 22.953125 48.484375 18.875 42.84375 
Q 14.796875 37.203125 14.796875 27.296875 
z
M 45.40625 8.203125 
Q 42.578125 3.328125 38.25 0.953125 
Q 33.9375 -1.421875 27.875 -1.421875 
Q 17.96875 -1.421875 11.734375 6.484375 
Q 5.515625 14.40625 5.515625 27.296875 
Q 5.515625 40.1875 11.734375 48.09375 
Q 17.96875 56 27.875 56 
Q 33.9375 56 38.25 53.625 
Q 42.578125 51.265625 45.40625 46.390625 
L 45.40625 54.6875 
L 54.390625 54.6875 
L 54.390625 -20.796875 
L 45.40625 -20.796875 
z
" id="DejaVuSans-113"/>
    <path d="M 8.59375 75.984375 
L 29.296875 75.984375 
L 29.296875 69 
L 17.578125 69 
L 17.578125 -6.203125 
L 29.296875 -6.203125 
L 29.296875 -13.1875 
L 8.59375 -13.1875 
z
" id="DejaVuSans-91"/>
    <path d="M 9.8125 72.90625 
L 19.671875 72.90625 
L 19.671875 43.015625 
L 55.515625 43.015625 
L 55.515625 72.90625 
L 65.375 72.90625 
L 65.375 0 
L 55.515625 0 
L 55.515625 34.71875 
L 19.671875 34.71875 
L 19.671875 0 
L 9.8125 0 
z
" id="DejaVuSans-72"/>
    <path d="M 5.515625 54.6875 
L 48.1875 54.6875 
L 48.1875 46.484375 
L 14.40625 7.171875 
L 48.1875 7.171875 
L 48.1875 0 
L 4.296875 0 
L 4.296875 8.203125 
L 38.09375 47.515625 
L 5.515625 47.515625 
z
" id="DejaVuSans-122"/>
    <path d="M 30.421875 75.984375 
L 30.421875 -13.1875 
L 9.71875 -13.1875 
L 9.71875 -6.203125 
L 21.390625 -6.203125 
L 21.390625 69 
L 9.71875 69 
L 9.71875 75.984375 
z
" id="DejaVuSans-93"/>
   </defs>
   <g transform="translate(465.827344 360)scale(0.1 -0.1)">
    <use xlink:href="#DejaVuSans-70"/>
    <use x="57.410156" xlink:href="#DejaVuSans-114"/>
    <use x="98.492188" xlink:href="#DejaVuSans-101"/>
    <use x="160.015625" xlink:href="#DejaVuSans-113"/>
    <use x="223.492188" xlink:href="#DejaVuSans-117"/>
    <use x="286.871094" xlink:href="#DejaVuSans-101"/>
    <use x="348.394531" xlink:href="#DejaVuSans-110"/>
    <use x="411.773438" xlink:href="#DejaVuSans-99"/>
    <use x="466.753906" xlink:href="#DejaVuSans-121"/>
    <use x="525.933594" xlink:href="#DejaVuSans-32"/>
    <use x="557.720703" xlink:href="#DejaVuSans-91"/>
    <use x="596.734375" xlink:href="#DejaVuSans-72"/>
    <use x="671.929688" xlink:href="#DejaVuSans-122"/>
    <use x="724.419922" xlink:href="#DejaVuSans-93"/>
   </g>
  </g>
  <g id="text_47">
   <!-- Acceleration/Acceleration [mm/s^2/mm/s^2], Scaled to 2G -->
   <defs>
    <path d="M 34.1875 63.1875 
L 20.796875 26.90625 
L 47.609375 26.90625 
z
M 28.609375 72.90625 
L 39.796875 72.90625 
L 67.578125 0 
L 57.328125 0 
L 50.6875 18.703125 
L 17.828125 18.703125 
L 11.1875 0 
L 0.78125 0 
z
" id="DejaVuSans-65"/>
    <path d="M 25.390625 72.90625 
L 33.6875 72.90625 
L 8.296875 -9.28125 
L 0 -9.28125 
z
" id="DejaVuSans-47"/>
    <path d="M 46.6875 72.90625 
L 73.1875 45.703125 
L 63.375 45.703125 
L 41.890625 64.984375 
L 20.40625 45.703125 
L 10.59375 45.703125 
L 37.109375 72.90625 
z
" id="DejaVuSans-94"/>
    <path d="M 11.71875 12.40625 
L 22.015625 12.40625 
L 22.015625 4 
L 14.015625 -11.625 
L 7.71875 -11.625 
L 11.71875 4 
z
" id="DejaVuSans-44"/>
    <path d="M 53.515625 70.515625 
L 53.515625 60.890625 
Q 47.90625 63.578125 42.921875 64.890625 
Q 37.9375 66.21875 33.296875 66.21875 
Q 25.25 66.21875 20.875 63.09375 
Q 16.5 59.96875 16.5 54.203125 
Q 16.5 49.359375 19.40625 46.890625 
Q 22.3125 44.4375 30.421875 42.921875 
L 36.375 41.703125 
Q 47.40625 39.59375 52.65625 34.296875 
Q 57.90625 29 57.90625 20.125 
Q 57.90625 9.515625 50.796875 4.046875 
Q 43.703125 -1.421875 29.984375 -1.421875 
Q 24.8125 -1.421875 18.96875 -0.25 
Q 13.140625 0.921875 6.890625 3.21875 
L 6.890625 13.375 
Q 12.890625 10.015625 18.65625 8.296875 
Q 24.421875 6.59375 29.984375 6.59375 
Q 38.421875 6.59375 43.015625 9.90625 
Q 47.609375 13.234375 47.609375 19.390625 
Q 47.609375 24.75 44.3125 27.78125 
Q 41.015625 30.8125 33.5 32.328125 
L 27.484375 33.5 
Q 16.453125 35.6875 11.515625 40.375 
Q 6.59375 45.0625 6.59375 53.421875 
Q 6.59375 63.09375 13.40625 68.65625 
Q 20.21875 74.21875 32.171875 74.21875 
Q 37.3125 74.21875 42.625 73.28125 
Q 47.953125 72.359375 53.515625 70.515625 
z
" id="DejaVuSans-83"/>
    <path d="M 59.515625 10.40625 
L 59.515625 29.984375 
L 43.40625 29.984375 
L 43.40625 38.09375 
L 69.28125 38.09375 
L 69.28125 6.78125 
Q 63.578125 2.734375 56.6875 0.65625 
Q 49.8125 -1.421875 42 -1.421875 
Q 24.90625 -1.421875 15.25 8.5625 
Q 5.609375 18.5625 5.609375 36.375 
Q 5.609375 54.25 15.25 64.234375 
Q 24.90625 74.21875 42 74.21875 
Q 49.125 74.21875 55.546875 72.453125 
Q 61.96875 70.703125 67.390625 67.28125 
L 67.390625 56.78125 
Q 61.921875 61.421875 55.765625 63.765625 
Q 49.609375 66.109375 42.828125 66.109375 
Q 29.4375 66.109375 22.71875 58.640625 
Q 16.015625 51.171875 16.015625 36.375 
Q 16.015625 21.625 22.71875 14.15625 
Q 29.4375 6.6875 42.828125 6.6875 
Q 48.046875 6.6875 52.140625 7.59375 
Q 56.25 8.5 59.515625 10.40625 
z
" id="DejaVuSans-71"/>
   </defs>
   <g transform="translate(-2.481562 329.033594)rotate(-90)scale(0.1 -0.1)">
    <use xlink:href="#DejaVuSans-65"/>
    <use x="68.392578" xlink:href="#DejaVuSans-99"/>
    <use x="123.373047" xlink:href="#DejaVuSans-99"/>
    <use x="178.353516" xlink:href="#DejaVuSans-101"/>
    <use x="239.876953" xlink:href="#DejaVuSans-108"/>
    <use x="267.660156" xlink:href="#DejaVuSans-101"/>
    <use x="329.183594" xlink:href="#DejaVuSans-114"/>
    <use x="370.296875" xlink:href="#DejaVuSans-97"/>
    <use x="431.576172" xlink:href="#DejaVuSans-116"/>
    <use x="470.785156" xlink:href="#DejaVuSans-105"/>
    <use x="498.568359" xlink:href="#DejaVuSans-111"/>
    <use x="559.75" xlink:href="#DejaVuSans-110"/>
    <use x="623.128906" xlink:href="#DejaVuSans-47"/>
    <use x="656.820312" xlink:href="#DejaVuSans-65"/>
    <use x="725.212891" xlink:href="#DejaVuSans-99"/>
    <use x="780.193359" xlink:href="#DejaVuSans-99"/>
    <use x="835.173828" xlink:href="#DejaVuSans-101"/>
    <use x="896.697266" xlink:href="#DejaVuSans-108"/>
    <use x="924.480469" xlink:href="#DejaVuSans-101"/>
    <use x="986.003906" xlink:href="#DejaVuSans-114"/>
    <use x="1027.117188" xlink:href="#DejaVuSans-97"/>
    <use x="1088.396484" xlink:href="#DejaVuSans-116"/>
    <use x="1127.605469" xlink:href="#DejaVuSans-105"/>
    <use x="1155.388672" xlink:href="#DejaVuSans-111"/>
    <use x="1216.570312" xlink:href="#DejaVuSans-110"/>
    <use x="1279.949219" xlink:href="#DejaVuSans-32"/>
    <use x="1311.736328" xlink:href="#DejaVuSans-91"/>
    <use x="1350.75" xlink:href="#DejaVuSans-109"/>
    <use x="1448.162109" xlink:href="#DejaVuSans-109"/>
    <use x="1545.574219" xlink:href="#DejaVuSans-47"/>
    <use x="1579.265625" xlink:href="#DejaVuSans-115"/>
    <use x="1631.365234" xlink:href="#DejaVuSans-94"/>
    <use x="1715.154297" xlink:href="#DejaVuSans-50"/>
    <use x="1778.777344" xlink:href="#DejaVuSans-47"/>
    <use x="1812.46875" xlink:href="#DejaVuSans-109"/>
    <use x="1909.880859" xlink:href="#DejaVuSans-109"/>
    <use x="2007.292969" xlink:href="#DejaVuSans-47"/>
    <use x="2040.984375" xlink:href="#DejaVuSans-115"/>
    <use x="2093.083984" xlink:href="#DejaVuSans-94"/>
    <use x="2176.873047" xlink:href="#DejaVuSans-50"/>
    <use x="2240.496094" xlink:href="#DejaVuSans-93"/>
    <use x="2279.509766" xlink:href="#DejaVuSans-44"/>
    <use x="2311.296875" xlink:href="#DejaVuSans-32"/>
    <use x="2343.083984" xlink:href="#DejaVuSans-83"/>
    <use x="2406.560547" xlink:href="#DejaVuSans-99"/>
    <use x="2461.541016" xlink:href="#DejaVuSans-97"/>
    <use x="2522.820312" xlink:href="#DejaVuSans-108"/>
    <use x="2550.603516" xlink:href="#DejaVuSans-101"/>
    <use x="2612.126953" xlink:href="#DejaVuSans-100"/>
    <use x="2675.603516" xlink:href="#DejaVuSans-32"/>
    <use x="2707.390625" xlink:href="#DejaVuSans-116"/>
    <use x="2746.599609" xlink:href="#DejaVuSans-111"/>
    <use x="2807.78125" xlink:href="#DejaVuSans-32"/>
    <use x="2839.568359" xlink:href="#DejaVuSans-50"/>
    <use x="2903.191406" xlink:href="#DejaVuSans-71"/>
   </g>
  </g>
 </g>
 <defs>
  <clipPath id="pcec476fda0">
   <rect height="301.9" width="287.85" x="49.3" y="30.3"/>
  </clipPath>
  <clipPath id="pdf4542143e">
   <rect height="301.9" width="287.85" x="377.575" y="30.3"/>
  </clipPath>
  <clipPath id="pac223e6e5d">
   <rect height="301.9" width="287.85" x="705.85" y="30.3"/>
  </clipPath>
 </defs>
</svg>
