<?xml version="1.0" encoding="utf-8" standalone="no"?>
<!DOCTYPE svg PUBLIC "-//W3C//DTD SVG 1.1//EN"
  "http://www.w3.org/Graphics/SVG/1.1/DTD/svg11.dtd">
<!-- Created with matplotlib (https://matplotlib.org/) -->
<svg height="360pt" version="1.1" viewBox="0 0 1008 360" width="1008pt" xmlns="http://www.w3.org/2000/svg" xmlns:xlink="http://www.w3.org/1999/xlink">
 <defs>
  <style type="text/css">
*{stroke-linecap:butt;stroke-linejoin:round;}
  </style>
 </defs>
 <g id="figure_1">
  <g id="patch_1">
   <path d="M 0 360 
L 1008 360 
L 1008 0 
L 0 0 
z
" style="fill:#ffffff;"/>
  </g>
  <g id="axes_1">
   <g id="patch_2">
    <path d="M 36.925 332.2 
L 320.65 332.2 
L 320.65 30.3 
L 36.925 30.3 
z
" style="fill:#ffffff;"/>
   </g>
   <g id="matplotlib.axis_1">
    <g id="xtick_1">
     <g id="line2d_1">
      <path clip-path="url(#p7b82d22421)" d="M 49.733023 332.2 
L 49.733023 30.3 
" style="fill:none;stroke:#b0b0b0;stroke-linecap:square;stroke-width:0.5;"/>
     </g>
     <g id="line2d_2">
      <defs>
       <path d="M 0 0 
L 0 3.5 
" id="m390067e4a0" style="stroke:#000000;stroke-width:0.8;"/>
      </defs>
      <g>
       <use style="stroke:#000000;stroke-width:0.8;" x="49.733023" xlink:href="#m390067e4a0" y="332.2"/>
      </g>
     </g>
     <g id="text_1">
      <!-- 0 -->
      <defs>
       <path d="M 31.78125 66.40625 
Q 24.171875 66.40625 20.328125 58.90625 
Q 16.5 51.421875 16.5 36.375 
Q 16.5 21.390625 20.328125 13.890625 
Q 24.171875 6.390625 31.78125 6.390625 
Q 39.453125 6.390625 43.28125 13.890625 
Q 47.125 21.390625 47.125 36.375 
Q 47.125 51.421875 43.28125 58.90625 
Q 39.453125 66.40625 31.78125 66.40625 
z
M 31.78125 74.21875 
Q 44.046875 74.21875 50.515625 64.515625 
Q 56.984375 54.828125 56.984375 36.375 
Q 56.984375 17.96875 50.515625 8.265625 
Q 44.046875 -1.421875 31.78125 -1.421875 
Q 19.53125 -1.421875 13.0625 8.265625 
Q 6.59375 17.96875 6.59375 36.375 
Q 6.59375 54.828125 13.0625 64.515625 
Q 19.53125 74.21875 31.78125 74.21875 
z
" id="DejaVuSans-48"/>
      </defs>
      <g transform="translate(46.551773 346.798438)scale(0.1 -0.1)">
       <use xlink:href="#DejaVuSans-48"/>
      </g>
     </g>
    </g>
    <g id="xtick_2">
     <g id="line2d_3">
      <path clip-path="url(#p7b82d22421)" d="M 101.3371 332.2 
L 101.3371 30.3 
" style="fill:none;stroke:#b0b0b0;stroke-linecap:square;stroke-width:0.5;"/>
     </g>
     <g id="line2d_4">
      <g>
       <use style="stroke:#000000;stroke-width:0.8;" x="101.3371" xlink:href="#m390067e4a0" y="332.2"/>
      </g>
     </g>
     <g id="text_2">
      <!-- 200 -->
      <defs>
       <path d="M 19.1875 8.296875 
L 53.609375 8.296875 
L 53.609375 0 
L 7.328125 0 
L 7.328125 8.296875 
Q 12.9375 14.109375 22.625 23.890625 
Q 32.328125 33.6875 34.8125 36.53125 
Q 39.546875 41.84375 41.421875 45.53125 
Q 43.3125 49.21875 43.3125 52.78125 
Q 43.3125 58.59375 39.234375 62.25 
Q 35.15625 65.921875 28.609375 65.921875 
Q 23.96875 65.921875 18.8125 64.3125 
Q 13.671875 62.703125 7.8125 59.421875 
L 7.8125 69.390625 
Q 13.765625 71.78125 18.9375 73 
Q 24.125 74.21875 28.421875 74.21875 
Q 39.75 74.21875 46.484375 68.546875 
Q 53.21875 62.890625 53.21875 53.421875 
Q 53.21875 48.921875 51.53125 44.890625 
Q 49.859375 40.875 45.40625 35.40625 
Q 44.1875 33.984375 37.640625 27.21875 
Q 31.109375 20.453125 19.1875 8.296875 
z
" id="DejaVuSans-50"/>
      </defs>
      <g transform="translate(91.79335 346.798438)scale(0.1 -0.1)">
       <use xlink:href="#DejaVuSans-50"/>
       <use x="63.623047" xlink:href="#DejaVuSans-48"/>
       <use x="127.246094" xlink:href="#DejaVuSans-48"/>
      </g>
     </g>
    </g>
    <g id="xtick_3">
     <g id="line2d_5">
      <path clip-path="url(#p7b82d22421)" d="M 152.941177 332.2 
L 152.941177 30.3 
" style="fill:none;stroke:#b0b0b0;stroke-linecap:square;stroke-width:0.5;"/>
     </g>
     <g id="line2d_6">
      <g>
       <use style="stroke:#000000;stroke-width:0.8;" x="152.941177" xlink:href="#m390067e4a0" y="332.2"/>
      </g>
     </g>
     <g id="text_3">
      <!-- 400 -->
      <defs>
       <path d="M 37.796875 64.3125 
L 12.890625 25.390625 
L 37.796875 25.390625 
z
M 35.203125 72.90625 
L 47.609375 72.90625 
L 47.609375 25.390625 
L 58.015625 25.390625 
L 58.015625 17.1875 
L 47.609375 17.1875 
L 47.609375 0 
L 37.796875 0 
L 37.796875 17.1875 
L 4.890625 17.1875 
L 4.890625 26.703125 
z
" id="DejaVuSans-52"/>
      </defs>
      <g transform="translate(143.397427 346.798438)scale(0.1 -0.1)">
       <use xlink:href="#DejaVuSans-52"/>
       <use x="63.623047" xlink:href="#DejaVuSans-48"/>
       <use x="127.246094" xlink:href="#DejaVuSans-48"/>
      </g>
     </g>
    </g>
    <g id="xtick_4">
     <g id="line2d_7">
      <path clip-path="url(#p7b82d22421)" d="M 204.545255 332.2 
L 204.545255 30.3 
" style="fill:none;stroke:#b0b0b0;stroke-linecap:square;stroke-width:0.5;"/>
     </g>
     <g id="line2d_8">
      <g>
       <use style="stroke:#000000;stroke-width:0.8;" x="204.545255" xlink:href="#m390067e4a0" y="332.2"/>
      </g>
     </g>
     <g id="text_4">
      <!-- 600 -->
      <defs>
       <path d="M 33.015625 40.375 
Q 26.375 40.375 22.484375 35.828125 
Q 18.609375 31.296875 18.609375 23.390625 
Q 18.609375 15.53125 22.484375 10.953125 
Q 26.375 6.390625 33.015625 6.390625 
Q 39.65625 6.390625 43.53125 10.953125 
Q 47.40625 15.53125 47.40625 23.390625 
Q 47.40625 31.296875 43.53125 35.828125 
Q 39.65625 40.375 33.015625 40.375 
z
M 52.59375 71.296875 
L 52.59375 62.3125 
Q 48.875 64.0625 45.09375 64.984375 
Q 41.3125 65.921875 37.59375 65.921875 
Q 27.828125 65.921875 22.671875 59.328125 
Q 17.53125 52.734375 16.796875 39.40625 
Q 19.671875 43.65625 24.015625 45.921875 
Q 28.375 48.1875 33.59375 48.1875 
Q 44.578125 48.1875 50.953125 41.515625 
Q 57.328125 34.859375 57.328125 23.390625 
Q 57.328125 12.15625 50.6875 5.359375 
Q 44.046875 -1.421875 33.015625 -1.421875 
Q 20.359375 -1.421875 13.671875 8.265625 
Q 6.984375 17.96875 6.984375 36.375 
Q 6.984375 53.65625 15.1875 63.9375 
Q 23.390625 74.21875 37.203125 74.21875 
Q 40.921875 74.21875 44.703125 73.484375 
Q 48.484375 72.75 52.59375 71.296875 
z
" id="DejaVuSans-54"/>
      </defs>
      <g transform="translate(195.001505 346.798438)scale(0.1 -0.1)">
       <use xlink:href="#DejaVuSans-54"/>
       <use x="63.623047" xlink:href="#DejaVuSans-48"/>
       <use x="127.246094" xlink:href="#DejaVuSans-48"/>
      </g>
     </g>
    </g>
    <g id="xtick_5">
     <g id="line2d_9">
      <path clip-path="url(#p7b82d22421)" d="M 256.149332 332.2 
L 256.149332 30.3 
" style="fill:none;stroke:#b0b0b0;stroke-linecap:square;stroke-width:0.5;"/>
     </g>
     <g id="line2d_10">
      <g>
       <use style="stroke:#000000;stroke-width:0.8;" x="256.149332" xlink:href="#m390067e4a0" y="332.2"/>
      </g>
     </g>
     <g id="text_5">
      <!-- 800 -->
      <defs>
       <path d="M 31.78125 34.625 
Q 24.75 34.625 20.71875 30.859375 
Q 16.703125 27.09375 16.703125 20.515625 
Q 16.703125 13.921875 20.71875 10.15625 
Q 24.75 6.390625 31.78125 6.390625 
Q 38.8125 6.390625 42.859375 10.171875 
Q 46.921875 13.96875 46.921875 20.515625 
Q 46.921875 27.09375 42.890625 30.859375 
Q 38.875 34.625 31.78125 34.625 
z
M 21.921875 38.8125 
Q 15.578125 40.375 12.03125 44.71875 
Q 8.5 49.078125 8.5 55.328125 
Q 8.5 64.0625 14.71875 69.140625 
Q 20.953125 74.21875 31.78125 74.21875 
Q 42.671875 74.21875 48.875 69.140625 
Q 55.078125 64.0625 55.078125 55.328125 
Q 55.078125 49.078125 51.53125 44.71875 
Q 48 40.375 41.703125 38.8125 
Q 48.828125 37.15625 52.796875 32.3125 
Q 56.78125 27.484375 56.78125 20.515625 
Q 56.78125 9.90625 50.3125 4.234375 
Q 43.84375 -1.421875 31.78125 -1.421875 
Q 19.734375 -1.421875 13.25 4.234375 
Q 6.78125 9.90625 6.78125 20.515625 
Q 6.78125 27.484375 10.78125 32.3125 
Q 14.796875 37.15625 21.921875 38.8125 
z
M 18.3125 54.390625 
Q 18.3125 48.734375 21.84375 45.5625 
Q 25.390625 42.390625 31.78125 42.390625 
Q 38.140625 42.390625 41.71875 45.5625 
Q 45.3125 48.734375 45.3125 54.390625 
Q 45.3125 60.0625 41.71875 63.234375 
Q 38.140625 66.40625 31.78125 66.40625 
Q 25.390625 66.40625 21.84375 63.234375 
Q 18.3125 60.0625 18.3125 54.390625 
z
" id="DejaVuSans-56"/>
      </defs>
      <g transform="translate(246.605582 346.798438)scale(0.1 -0.1)">
       <use xlink:href="#DejaVuSans-56"/>
       <use x="63.623047" xlink:href="#DejaVuSans-48"/>
       <use x="127.246094" xlink:href="#DejaVuSans-48"/>
      </g>
     </g>
    </g>
    <g id="xtick_6">
     <g id="line2d_11">
      <path clip-path="url(#p7b82d22421)" d="M 307.753409 332.2 
L 307.753409 30.3 
" style="fill:none;stroke:#b0b0b0;stroke-linecap:square;stroke-width:0.5;"/>
     </g>
     <g id="line2d_12">
      <g>
       <use style="stroke:#000000;stroke-width:0.8;" x="307.753409" xlink:href="#m390067e4a0" y="332.2"/>
      </g>
     </g>
     <g id="text_6">
      <!-- 1000 -->
      <defs>
       <path d="M 12.40625 8.296875 
L 28.515625 8.296875 
L 28.515625 63.921875 
L 10.984375 60.40625 
L 10.984375 69.390625 
L 28.421875 72.90625 
L 38.28125 72.90625 
L 38.28125 8.296875 
L 54.390625 8.296875 
L 54.390625 0 
L 12.40625 0 
z
" id="DejaVuSans-49"/>
      </defs>
      <g transform="translate(295.028409 346.798438)scale(0.1 -0.1)">
       <use xlink:href="#DejaVuSans-49"/>
       <use x="63.623047" xlink:href="#DejaVuSans-48"/>
       <use x="127.246094" xlink:href="#DejaVuSans-48"/>
       <use x="190.869141" xlink:href="#DejaVuSans-48"/>
      </g>
     </g>
    </g>
   </g>
   <g id="matplotlib.axis_2">
    <g id="ytick_1">
     <g id="line2d_13">
      <path clip-path="url(#p7b82d22421)" d="M 36.925 318.477273 
L 320.65 318.477273 
" style="fill:none;stroke:#b0b0b0;stroke-linecap:square;stroke-width:0.5;"/>
     </g>
     <g id="line2d_14">
      <defs>
       <path d="M 0 0 
L -3.5 0 
" id="m2bf08ba9e6" style="stroke:#000000;stroke-width:0.8;"/>
      </defs>
      <g>
       <use style="stroke:#000000;stroke-width:0.8;" x="36.925" xlink:href="#m2bf08ba9e6" y="318.477273"/>
      </g>
     </g>
     <g id="text_7">
      <!-- 0 -->
      <g transform="translate(23.5625 322.276492)scale(0.1 -0.1)">
       <use xlink:href="#DejaVuSans-48"/>
      </g>
     </g>
    </g>
    <g id="ytick_2">
     <g id="line2d_15">
      <path clip-path="url(#p7b82d22421)" d="M 36.925 282.655222 
L 320.65 282.655222 
" style="fill:none;stroke:#b0b0b0;stroke-linecap:square;stroke-width:0.5;"/>
     </g>
     <g id="line2d_16">
      <g>
       <use style="stroke:#000000;stroke-width:0.8;" x="36.925" xlink:href="#m2bf08ba9e6" y="282.655222"/>
      </g>
     </g>
     <g id="text_8">
      <!-- 25 -->
      <defs>
       <path d="M 10.796875 72.90625 
L 49.515625 72.90625 
L 49.515625 64.59375 
L 19.828125 64.59375 
L 19.828125 46.734375 
Q 21.96875 47.46875 24.109375 47.828125 
Q 26.265625 48.1875 28.421875 48.1875 
Q 40.625 48.1875 47.75 41.5 
Q 54.890625 34.8125 54.890625 23.390625 
Q 54.890625 11.625 47.5625 5.09375 
Q 40.234375 -1.421875 26.90625 -1.421875 
Q 22.3125 -1.421875 17.546875 -0.640625 
Q 12.796875 0.140625 7.71875 1.703125 
L 7.71875 11.625 
Q 12.109375 9.234375 16.796875 8.0625 
Q 21.484375 6.890625 26.703125 6.890625 
Q 35.15625 6.890625 40.078125 11.328125 
Q 45.015625 15.765625 45.015625 23.390625 
Q 45.015625 31 40.078125 35.4375 
Q 35.15625 39.890625 26.703125 39.890625 
Q 22.75 39.890625 18.8125 39.015625 
Q 14.890625 38.140625 10.796875 36.28125 
z
" id="DejaVuSans-53"/>
      </defs>
      <g transform="translate(17.2 286.454441)scale(0.1 -0.1)">
       <use xlink:href="#DejaVuSans-50"/>
       <use x="63.623047" xlink:href="#DejaVuSans-53"/>
      </g>
     </g>
    </g>
    <g id="ytick_3">
     <g id="line2d_17">
      <path clip-path="url(#p7b82d22421)" d="M 36.925 246.833171 
L 320.65 246.833171 
" style="fill:none;stroke:#b0b0b0;stroke-linecap:square;stroke-width:0.5;"/>
     </g>
     <g id="line2d_18">
      <g>
       <use style="stroke:#000000;stroke-width:0.8;" x="36.925" xlink:href="#m2bf08ba9e6" y="246.833171"/>
      </g>
     </g>
     <g id="text_9">
      <!-- 50 -->
      <g transform="translate(17.2 250.63239)scale(0.1 -0.1)">
       <use xlink:href="#DejaVuSans-53"/>
       <use x="63.623047" xlink:href="#DejaVuSans-48"/>
      </g>
     </g>
    </g>
    <g id="ytick_4">
     <g id="line2d_19">
      <path clip-path="url(#p7b82d22421)" d="M 36.925 211.01112 
L 320.65 211.01112 
" style="fill:none;stroke:#b0b0b0;stroke-linecap:square;stroke-width:0.5;"/>
     </g>
     <g id="line2d_20">
      <g>
       <use style="stroke:#000000;stroke-width:0.8;" x="36.925" xlink:href="#m2bf08ba9e6" y="211.01112"/>
      </g>
     </g>
     <g id="text_10">
      <!-- 75 -->
      <defs>
       <path d="M 8.203125 72.90625 
L 55.078125 72.90625 
L 55.078125 68.703125 
L 28.609375 0 
L 18.3125 0 
L 43.21875 64.59375 
L 8.203125 64.59375 
z
" id="DejaVuSans-55"/>
      </defs>
      <g transform="translate(17.2 214.810339)scale(0.1 -0.1)">
       <use xlink:href="#DejaVuSans-55"/>
       <use x="63.623047" xlink:href="#DejaVuSans-53"/>
      </g>
     </g>
    </g>
    <g id="ytick_5">
     <g id="line2d_21">
      <path clip-path="url(#p7b82d22421)" d="M 36.925 175.189069 
L 320.65 175.189069 
" style="fill:none;stroke:#b0b0b0;stroke-linecap:square;stroke-width:0.5;"/>
     </g>
     <g id="line2d_22">
      <g>
       <use style="stroke:#000000;stroke-width:0.8;" x="36.925" xlink:href="#m2bf08ba9e6" y="175.189069"/>
      </g>
     </g>
     <g id="text_11">
      <!-- 100 -->
      <g transform="translate(10.8375 178.988288)scale(0.1 -0.1)">
       <use xlink:href="#DejaVuSans-49"/>
       <use x="63.623047" xlink:href="#DejaVuSans-48"/>
       <use x="127.246094" xlink:href="#DejaVuSans-48"/>
      </g>
     </g>
    </g>
    <g id="ytick_6">
     <g id="line2d_23">
      <path clip-path="url(#p7b82d22421)" d="M 36.925 139.367018 
L 320.65 139.367018 
" style="fill:none;stroke:#b0b0b0;stroke-linecap:square;stroke-width:0.5;"/>
     </g>
     <g id="line2d_24">
      <g>
       <use style="stroke:#000000;stroke-width:0.8;" x="36.925" xlink:href="#m2bf08ba9e6" y="139.367018"/>
      </g>
     </g>
     <g id="text_12">
      <!-- 125 -->
      <g transform="translate(10.8375 143.166237)scale(0.1 -0.1)">
       <use xlink:href="#DejaVuSans-49"/>
       <use x="63.623047" xlink:href="#DejaVuSans-50"/>
       <use x="127.246094" xlink:href="#DejaVuSans-53"/>
      </g>
     </g>
    </g>
    <g id="ytick_7">
     <g id="line2d_25">
      <path clip-path="url(#p7b82d22421)" d="M 36.925 103.544967 
L 320.65 103.544967 
" style="fill:none;stroke:#b0b0b0;stroke-linecap:square;stroke-width:0.5;"/>
     </g>
     <g id="line2d_26">
      <g>
       <use style="stroke:#000000;stroke-width:0.8;" x="36.925" xlink:href="#m2bf08ba9e6" y="103.544967"/>
      </g>
     </g>
     <g id="text_13">
      <!-- 150 -->
      <g transform="translate(10.8375 107.344186)scale(0.1 -0.1)">
       <use xlink:href="#DejaVuSans-49"/>
       <use x="63.623047" xlink:href="#DejaVuSans-53"/>
       <use x="127.246094" xlink:href="#DejaVuSans-48"/>
      </g>
     </g>
    </g>
    <g id="ytick_8">
     <g id="line2d_27">
      <path clip-path="url(#p7b82d22421)" d="M 36.925 67.722916 
L 320.65 67.722916 
" style="fill:none;stroke:#b0b0b0;stroke-linecap:square;stroke-width:0.5;"/>
     </g>
     <g id="line2d_28">
      <g>
       <use style="stroke:#000000;stroke-width:0.8;" x="36.925" xlink:href="#m2bf08ba9e6" y="67.722916"/>
      </g>
     </g>
     <g id="text_14">
      <!-- 175 -->
      <g transform="translate(10.8375 71.522135)scale(0.1 -0.1)">
       <use xlink:href="#DejaVuSans-49"/>
       <use x="63.623047" xlink:href="#DejaVuSans-55"/>
       <use x="127.246094" xlink:href="#DejaVuSans-53"/>
      </g>
     </g>
    </g>
    <g id="ytick_9">
     <g id="line2d_29">
      <path clip-path="url(#p7b82d22421)" d="M 36.925 31.900865 
L 320.65 31.900865 
" style="fill:none;stroke:#b0b0b0;stroke-linecap:square;stroke-width:0.5;"/>
     </g>
     <g id="line2d_30">
      <g>
       <use style="stroke:#000000;stroke-width:0.8;" x="36.925" xlink:href="#m2bf08ba9e6" y="31.900865"/>
      </g>
     </g>
     <g id="text_15">
      <!-- 200 -->
      <g transform="translate(10.8375 35.700084)scale(0.1 -0.1)">
       <use xlink:href="#DejaVuSans-50"/>
       <use x="63.623047" xlink:href="#DejaVuSans-48"/>
       <use x="127.246094" xlink:href="#DejaVuSans-48"/>
      </g>
     </g>
    </g>
   </g>
   <g id="line2d_31">
    <path clip-path="url(#p7b82d22421)" d="M 49.821591 318.477273 
L 93.92838 318.366244 
L 104.733655 318.129493 
L 111.021973 317.784118 
L 115.27322 317.338629 
L 118.373103 316.800864 
L 120.764436 316.171898 
L 122.712928 315.437867 
L 124.307159 314.612347 
L 125.724232 313.62986 
L 126.964175 312.496865 
L 128.115565 311.123198 
L 129.089825 309.626704 
L 130.064058 307.708488 
L 130.949739 305.464751 
L 131.83542 302.562495 
L 132.632522 299.173122 
L 133.42965 294.754403 
L 134.138174 289.621124 
L 134.846724 282.88446 
L 135.555274 273.847613 
L 136.175245 263.194892 
L 136.795216 248.78115 
L 137.415188 228.933234 
L 138.035159 201.675305 
L 138.79988 156.260116 
L 140.472729 51.549204 
L 140.791617 44.671031 
L 140.924626 44.022823 
L 140.929787 44.024446 
L 141.024583 44.406864 
L 141.214486 47.13209 
L 141.500038 55.703017 
L 141.977994 79.034582 
L 144.110791 196.682663 
L 144.898501 224.063951 
L 145.692817 244.007159 
L 146.493712 258.594453 
L 147.301342 269.421749 
L 148.11568 277.60321 
L 149.039987 284.583592 
L 149.972937 289.89828 
L 150.91466 294.027623 
L 151.865232 297.294283 
L 152.931915 300.180253 
L 154.009666 302.484627 
L 155.208299 304.520873 
L 156.42066 306.165183 
L 157.759166 307.622478 
L 159.228102 308.90181 
L 160.947963 310.088695 
L 162.812212 311.100869 
L 164.946866 312.008807 
L 167.488289 312.843213 
L 170.461458 313.584232 
L 174.154453 314.268123 
L 178.628191 314.868444 
L 184.517351 315.422098 
L 191.999607 315.89625 
L 202.255866 316.315179 
L 216.684959 316.671827 
L 237.482899 316.962074 
L 273.986307 317.214507 
L 307.753409 317.332278 
L 307.753409 317.332278 
" style="fill:none;stroke:#d62728;stroke-linecap:square;stroke-width:1.5;"/>
   </g>
   <g id="patch_3">
    <path d="M 36.925 332.2 
L 36.925 30.3 
" style="fill:none;stroke:#000000;stroke-linecap:square;stroke-linejoin:miter;stroke-width:0.8;"/>
   </g>
   <g id="patch_4">
    <path d="M 320.65 332.2 
L 320.65 30.3 
" style="fill:none;stroke:#000000;stroke-linecap:square;stroke-linejoin:miter;stroke-width:0.8;"/>
   </g>
   <g id="patch_5">
    <path d="M 36.925 332.2 
L 320.65 332.2 
" style="fill:none;stroke:#000000;stroke-linecap:square;stroke-linejoin:miter;stroke-width:0.8;"/>
   </g>
   <g id="patch_6">
    <path d="M 36.925 30.3 
L 320.65 30.3 
" style="fill:none;stroke:#000000;stroke-linecap:square;stroke-linejoin:miter;stroke-width:0.8;"/>
   </g>
   <g id="text_16">
    <!-- X-direction -->
    <defs>
     <path d="M 6.296875 72.90625 
L 16.890625 72.90625 
L 35.015625 45.796875 
L 53.21875 72.90625 
L 63.8125 72.90625 
L 40.375 37.890625 
L 65.375 0 
L 54.78125 0 
L 34.28125 31 
L 13.625 0 
L 2.984375 0 
L 29 38.921875 
z
" id="DejaVuSans-88"/>
     <path d="M 4.890625 31.390625 
L 31.203125 31.390625 
L 31.203125 23.390625 
L 4.890625 23.390625 
z
" id="DejaVuSans-45"/>
     <path d="M 45.40625 46.390625 
L 45.40625 75.984375 
L 54.390625 75.984375 
L 54.390625 0 
L 45.40625 0 
L 45.40625 8.203125 
Q 42.578125 3.328125 38.25 0.953125 
Q 33.9375 -1.421875 27.875 -1.421875 
Q 17.96875 -1.421875 11.734375 6.484375 
Q 5.515625 14.40625 5.515625 27.296875 
Q 5.515625 40.1875 11.734375 48.09375 
Q 17.96875 56 27.875 56 
Q 33.9375 56 38.25 53.625 
Q 42.578125 51.265625 45.40625 46.390625 
z
M 14.796875 27.296875 
Q 14.796875 17.390625 18.875 11.75 
Q 22.953125 6.109375 30.078125 6.109375 
Q 37.203125 6.109375 41.296875 11.75 
Q 45.40625 17.390625 45.40625 27.296875 
Q 45.40625 37.203125 41.296875 42.84375 
Q 37.203125 48.484375 30.078125 48.484375 
Q 22.953125 48.484375 18.875 42.84375 
Q 14.796875 37.203125 14.796875 27.296875 
z
" id="DejaVuSans-100"/>
     <path d="M 9.421875 54.6875 
L 18.40625 54.6875 
L 18.40625 0 
L 9.421875 0 
z
M 9.421875 75.984375 
L 18.40625 75.984375 
L 18.40625 64.59375 
L 9.421875 64.59375 
z
" id="DejaVuSans-105"/>
     <path d="M 41.109375 46.296875 
Q 39.59375 47.171875 37.8125 47.578125 
Q 36.03125 48 33.890625 48 
Q 26.265625 48 22.1875 43.046875 
Q 18.109375 38.09375 18.109375 28.8125 
L 18.109375 0 
L 9.078125 0 
L 9.078125 54.6875 
L 18.109375 54.6875 
L 18.109375 46.1875 
Q 20.953125 51.171875 25.484375 53.578125 
Q 30.03125 56 36.53125 56 
Q 37.453125 56 38.578125 55.875 
Q 39.703125 55.765625 41.0625 55.515625 
z
" id="DejaVuSans-114"/>
     <path d="M 56.203125 29.59375 
L 56.203125 25.203125 
L 14.890625 25.203125 
Q 15.484375 15.921875 20.484375 11.0625 
Q 25.484375 6.203125 34.421875 6.203125 
Q 39.59375 6.203125 44.453125 7.46875 
Q 49.3125 8.734375 54.109375 11.28125 
L 54.109375 2.78125 
Q 49.265625 0.734375 44.1875 -0.34375 
Q 39.109375 -1.421875 33.890625 -1.421875 
Q 20.796875 -1.421875 13.15625 6.1875 
Q 5.515625 13.8125 5.515625 26.8125 
Q 5.515625 40.234375 12.765625 48.109375 
Q 20.015625 56 32.328125 56 
Q 43.359375 56 49.78125 48.890625 
Q 56.203125 41.796875 56.203125 29.59375 
z
M 47.21875 32.234375 
Q 47.125 39.59375 43.09375 43.984375 
Q 39.0625 48.390625 32.421875 48.390625 
Q 24.90625 48.390625 20.390625 44.140625 
Q 15.875 39.890625 15.1875 32.171875 
z
" id="DejaVuSans-101"/>
     <path d="M 48.78125 52.59375 
L 48.78125 44.1875 
Q 44.96875 46.296875 41.140625 47.34375 
Q 37.3125 48.390625 33.40625 48.390625 
Q 24.65625 48.390625 19.8125 42.84375 
Q 14.984375 37.3125 14.984375 27.296875 
Q 14.984375 17.28125 19.8125 11.734375 
Q 24.65625 6.203125 33.40625 6.203125 
Q 37.3125 6.203125 41.140625 7.25 
Q 44.96875 8.296875 48.78125 10.40625 
L 48.78125 2.09375 
Q 45.015625 0.34375 40.984375 -0.53125 
Q 36.96875 -1.421875 32.421875 -1.421875 
Q 20.0625 -1.421875 12.78125 6.34375 
Q 5.515625 14.109375 5.515625 27.296875 
Q 5.515625 40.671875 12.859375 48.328125 
Q 20.21875 56 33.015625 56 
Q 37.15625 56 41.109375 55.140625 
Q 45.0625 54.296875 48.78125 52.59375 
z
" id="DejaVuSans-99"/>
     <path d="M 18.3125 70.21875 
L 18.3125 54.6875 
L 36.8125 54.6875 
L 36.8125 47.703125 
L 18.3125 47.703125 
L 18.3125 18.015625 
Q 18.3125 11.328125 20.140625 9.421875 
Q 21.96875 7.515625 27.59375 7.515625 
L 36.8125 7.515625 
L 36.8125 0 
L 27.59375 0 
Q 17.1875 0 13.234375 3.875 
Q 9.28125 7.765625 9.28125 18.015625 
L 9.28125 47.703125 
L 2.6875 47.703125 
L 2.6875 54.6875 
L 9.28125 54.6875 
L 9.28125 70.21875 
z
" id="DejaVuSans-116"/>
     <path d="M 30.609375 48.390625 
Q 23.390625 48.390625 19.1875 42.75 
Q 14.984375 37.109375 14.984375 27.296875 
Q 14.984375 17.484375 19.15625 11.84375 
Q 23.34375 6.203125 30.609375 6.203125 
Q 37.796875 6.203125 41.984375 11.859375 
Q 46.1875 17.53125 46.1875 27.296875 
Q 46.1875 37.015625 41.984375 42.703125 
Q 37.796875 48.390625 30.609375 48.390625 
z
M 30.609375 56 
Q 42.328125 56 49.015625 48.375 
Q 55.71875 40.765625 55.71875 27.296875 
Q 55.71875 13.875 49.015625 6.21875 
Q 42.328125 -1.421875 30.609375 -1.421875 
Q 18.84375 -1.421875 12.171875 6.21875 
Q 5.515625 13.875 5.515625 27.296875 
Q 5.515625 40.765625 12.171875 48.375 
Q 18.84375 56 30.609375 56 
z
" id="DejaVuSans-111"/>
     <path d="M 54.890625 33.015625 
L 54.890625 0 
L 45.90625 0 
L 45.90625 32.71875 
Q 45.90625 40.484375 42.875 44.328125 
Q 39.84375 48.1875 33.796875 48.1875 
Q 26.515625 48.1875 22.3125 43.546875 
Q 18.109375 38.921875 18.109375 30.90625 
L 18.109375 0 
L 9.078125 0 
L 9.078125 54.6875 
L 18.109375 54.6875 
L 18.109375 46.1875 
Q 21.34375 51.125 25.703125 53.5625 
Q 30.078125 56 35.796875 56 
Q 45.21875 56 50.046875 50.171875 
Q 54.890625 44.34375 54.890625 33.015625 
z
" id="DejaVuSans-110"/>
    </defs>
    <g style="fill:#d62728;" transform="translate(146.093125 24.3)scale(0.12 -0.12)">
     <use xlink:href="#DejaVuSans-88"/>
     <use x="68.427734" xlink:href="#DejaVuSans-45"/>
     <use x="104.511719" xlink:href="#DejaVuSans-100"/>
     <use x="167.988281" xlink:href="#DejaVuSans-105"/>
     <use x="195.771484" xlink:href="#DejaVuSans-114"/>
     <use x="236.853516" xlink:href="#DejaVuSans-101"/>
     <use x="298.376953" xlink:href="#DejaVuSans-99"/>
     <use x="353.357422" xlink:href="#DejaVuSans-116"/>
     <use x="392.566406" xlink:href="#DejaVuSans-105"/>
     <use x="420.349609" xlink:href="#DejaVuSans-111"/>
     <use x="481.53125" xlink:href="#DejaVuSans-110"/>
    </g>
   </g>
  </g>
  <g id="axes_2">
   <g id="patch_7">
    <path d="M 373.45 332.2 
L 657.175 332.2 
L 657.175 30.3 
L 373.45 30.3 
z
" style="fill:#ffffff;"/>
   </g>
   <g id="matplotlib.axis_3">
    <g id="xtick_7">
     <g id="line2d_32">
      <path clip-path="url(#p1e8f400aef)" d="M 386.258023 332.2 
L 386.258023 30.3 
" style="fill:none;stroke:#b0b0b0;stroke-linecap:square;stroke-width:0.5;"/>
     </g>
     <g id="line2d_33">
      <g>
       <use style="stroke:#000000;stroke-width:0.8;" x="386.258023" xlink:href="#m390067e4a0" y="332.2"/>
      </g>
     </g>
     <g id="text_17">
      <!-- 0 -->
      <g transform="translate(383.076773 346.798438)scale(0.1 -0.1)">
       <use xlink:href="#DejaVuSans-48"/>
      </g>
     </g>
    </g>
    <g id="xtick_8">
     <g id="line2d_34">
      <path clip-path="url(#p1e8f400aef)" d="M 437.8621 332.2 
L 437.8621 30.3 
" style="fill:none;stroke:#b0b0b0;stroke-linecap:square;stroke-width:0.5;"/>
     </g>
     <g id="line2d_35">
      <g>
       <use style="stroke:#000000;stroke-width:0.8;" x="437.8621" xlink:href="#m390067e4a0" y="332.2"/>
      </g>
     </g>
     <g id="text_18">
      <!-- 200 -->
      <g transform="translate(428.31835 346.798438)scale(0.1 -0.1)">
       <use xlink:href="#DejaVuSans-50"/>
       <use x="63.623047" xlink:href="#DejaVuSans-48"/>
       <use x="127.246094" xlink:href="#DejaVuSans-48"/>
      </g>
     </g>
    </g>
    <g id="xtick_9">
     <g id="line2d_36">
      <path clip-path="url(#p1e8f400aef)" d="M 489.466177 332.2 
L 489.466177 30.3 
" style="fill:none;stroke:#b0b0b0;stroke-linecap:square;stroke-width:0.5;"/>
     </g>
     <g id="line2d_37">
      <g>
       <use style="stroke:#000000;stroke-width:0.8;" x="489.466177" xlink:href="#m390067e4a0" y="332.2"/>
      </g>
     </g>
     <g id="text_19">
      <!-- 400 -->
      <g transform="translate(479.922427 346.798438)scale(0.1 -0.1)">
       <use xlink:href="#DejaVuSans-52"/>
       <use x="63.623047" xlink:href="#DejaVuSans-48"/>
       <use x="127.246094" xlink:href="#DejaVuSans-48"/>
      </g>
     </g>
    </g>
    <g id="xtick_10">
     <g id="line2d_38">
      <path clip-path="url(#p1e8f400aef)" d="M 541.070255 332.2 
L 541.070255 30.3 
" style="fill:none;stroke:#b0b0b0;stroke-linecap:square;stroke-width:0.5;"/>
     </g>
     <g id="line2d_39">
      <g>
       <use style="stroke:#000000;stroke-width:0.8;" x="541.070255" xlink:href="#m390067e4a0" y="332.2"/>
      </g>
     </g>
     <g id="text_20">
      <!-- 600 -->
      <g transform="translate(531.526505 346.798438)scale(0.1 -0.1)">
       <use xlink:href="#DejaVuSans-54"/>
       <use x="63.623047" xlink:href="#DejaVuSans-48"/>
       <use x="127.246094" xlink:href="#DejaVuSans-48"/>
      </g>
     </g>
    </g>
    <g id="xtick_11">
     <g id="line2d_40">
      <path clip-path="url(#p1e8f400aef)" d="M 592.674332 332.2 
L 592.674332 30.3 
" style="fill:none;stroke:#b0b0b0;stroke-linecap:square;stroke-width:0.5;"/>
     </g>
     <g id="line2d_41">
      <g>
       <use style="stroke:#000000;stroke-width:0.8;" x="592.674332" xlink:href="#m390067e4a0" y="332.2"/>
      </g>
     </g>
     <g id="text_21">
      <!-- 800 -->
      <g transform="translate(583.130582 346.798438)scale(0.1 -0.1)">
       <use xlink:href="#DejaVuSans-56"/>
       <use x="63.623047" xlink:href="#DejaVuSans-48"/>
       <use x="127.246094" xlink:href="#DejaVuSans-48"/>
      </g>
     </g>
    </g>
    <g id="xtick_12">
     <g id="line2d_42">
      <path clip-path="url(#p1e8f400aef)" d="M 644.278409 332.2 
L 644.278409 30.3 
" style="fill:none;stroke:#b0b0b0;stroke-linecap:square;stroke-width:0.5;"/>
     </g>
     <g id="line2d_43">
      <g>
       <use style="stroke:#000000;stroke-width:0.8;" x="644.278409" xlink:href="#m390067e4a0" y="332.2"/>
      </g>
     </g>
     <g id="text_22">
      <!-- 1000 -->
      <g transform="translate(631.553409 346.798438)scale(0.1 -0.1)">
       <use xlink:href="#DejaVuSans-49"/>
       <use x="63.623047" xlink:href="#DejaVuSans-48"/>
       <use x="127.246094" xlink:href="#DejaVuSans-48"/>
       <use x="190.869141" xlink:href="#DejaVuSans-48"/>
      </g>
     </g>
    </g>
   </g>
   <g id="matplotlib.axis_4">
    <g id="ytick_10">
     <g id="line2d_44">
      <path clip-path="url(#p1e8f400aef)" d="M 373.45 318.477289 
L 657.175 318.477289 
" style="fill:none;stroke:#b0b0b0;stroke-linecap:square;stroke-width:0.5;"/>
     </g>
     <g id="line2d_45">
      <g>
       <use style="stroke:#000000;stroke-width:0.8;" x="373.45" xlink:href="#m2bf08ba9e6" y="318.477289"/>
      </g>
     </g>
     <g id="text_23">
      <!-- 0 -->
      <g transform="translate(360.0875 322.276508)scale(0.1 -0.1)">
       <use xlink:href="#DejaVuSans-48"/>
      </g>
     </g>
    </g>
    <g id="ytick_11">
     <g id="line2d_46">
      <path clip-path="url(#p1e8f400aef)" d="M 373.45 272.416352 
L 657.175 272.416352 
" style="fill:none;stroke:#b0b0b0;stroke-linecap:square;stroke-width:0.5;"/>
     </g>
     <g id="line2d_47">
      <g>
       <use style="stroke:#000000;stroke-width:0.8;" x="373.45" xlink:href="#m2bf08ba9e6" y="272.416352"/>
      </g>
     </g>
     <g id="text_24">
      <!-- 1 -->
      <g transform="translate(360.0875 276.215571)scale(0.1 -0.1)">
       <use xlink:href="#DejaVuSans-49"/>
      </g>
     </g>
    </g>
    <g id="ytick_12">
     <g id="line2d_48">
      <path clip-path="url(#p1e8f400aef)" d="M 373.45 226.355415 
L 657.175 226.355415 
" style="fill:none;stroke:#b0b0b0;stroke-linecap:square;stroke-width:0.5;"/>
     </g>
     <g id="line2d_49">
      <g>
       <use style="stroke:#000000;stroke-width:0.8;" x="373.45" xlink:href="#m2bf08ba9e6" y="226.355415"/>
      </g>
     </g>
     <g id="text_25">
      <!-- 2 -->
      <g transform="translate(360.0875 230.154634)scale(0.1 -0.1)">
       <use xlink:href="#DejaVuSans-50"/>
      </g>
     </g>
    </g>
    <g id="ytick_13">
     <g id="line2d_50">
      <path clip-path="url(#p1e8f400aef)" d="M 373.45 180.294478 
L 657.175 180.294478 
" style="fill:none;stroke:#b0b0b0;stroke-linecap:square;stroke-width:0.5;"/>
     </g>
     <g id="line2d_51">
      <g>
       <use style="stroke:#000000;stroke-width:0.8;" x="373.45" xlink:href="#m2bf08ba9e6" y="180.294478"/>
      </g>
     </g>
     <g id="text_26">
      <!-- 3 -->
      <defs>
       <path d="M 40.578125 39.3125 
Q 47.65625 37.796875 51.625 33 
Q 55.609375 28.21875 55.609375 21.1875 
Q 55.609375 10.40625 48.1875 4.484375 
Q 40.765625 -1.421875 27.09375 -1.421875 
Q 22.515625 -1.421875 17.65625 -0.515625 
Q 12.796875 0.390625 7.625 2.203125 
L 7.625 11.71875 
Q 11.71875 9.328125 16.59375 8.109375 
Q 21.484375 6.890625 26.8125 6.890625 
Q 36.078125 6.890625 40.9375 10.546875 
Q 45.796875 14.203125 45.796875 21.1875 
Q 45.796875 27.640625 41.28125 31.265625 
Q 36.765625 34.90625 28.71875 34.90625 
L 20.21875 34.90625 
L 20.21875 43.015625 
L 29.109375 43.015625 
Q 36.375 43.015625 40.234375 45.921875 
Q 44.09375 48.828125 44.09375 54.296875 
Q 44.09375 59.90625 40.109375 62.90625 
Q 36.140625 65.921875 28.71875 65.921875 
Q 24.65625 65.921875 20.015625 65.03125 
Q 15.375 64.15625 9.8125 62.3125 
L 9.8125 71.09375 
Q 15.4375 72.65625 20.34375 73.4375 
Q 25.25 74.21875 29.59375 74.21875 
Q 40.828125 74.21875 47.359375 69.109375 
Q 53.90625 64.015625 53.90625 55.328125 
Q 53.90625 49.265625 50.4375 45.09375 
Q 46.96875 40.921875 40.578125 39.3125 
z
" id="DejaVuSans-51"/>
      </defs>
      <g transform="translate(360.0875 184.093697)scale(0.1 -0.1)">
       <use xlink:href="#DejaVuSans-51"/>
      </g>
     </g>
    </g>
    <g id="ytick_14">
     <g id="line2d_52">
      <path clip-path="url(#p1e8f400aef)" d="M 373.45 134.233541 
L 657.175 134.233541 
" style="fill:none;stroke:#b0b0b0;stroke-linecap:square;stroke-width:0.5;"/>
     </g>
     <g id="line2d_53">
      <g>
       <use style="stroke:#000000;stroke-width:0.8;" x="373.45" xlink:href="#m2bf08ba9e6" y="134.233541"/>
      </g>
     </g>
     <g id="text_27">
      <!-- 4 -->
      <g transform="translate(360.0875 138.03276)scale(0.1 -0.1)">
       <use xlink:href="#DejaVuSans-52"/>
      </g>
     </g>
    </g>
    <g id="ytick_15">
     <g id="line2d_54">
      <path clip-path="url(#p1e8f400aef)" d="M 373.45 88.172604 
L 657.175 88.172604 
" style="fill:none;stroke:#b0b0b0;stroke-linecap:square;stroke-width:0.5;"/>
     </g>
     <g id="line2d_55">
      <g>
       <use style="stroke:#000000;stroke-width:0.8;" x="373.45" xlink:href="#m2bf08ba9e6" y="88.172604"/>
      </g>
     </g>
     <g id="text_28">
      <!-- 5 -->
      <g transform="translate(360.0875 91.971823)scale(0.1 -0.1)">
       <use xlink:href="#DejaVuSans-53"/>
      </g>
     </g>
    </g>
    <g id="ytick_16">
     <g id="line2d_56">
      <path clip-path="url(#p1e8f400aef)" d="M 373.45 42.111667 
L 657.175 42.111667 
" style="fill:none;stroke:#b0b0b0;stroke-linecap:square;stroke-width:0.5;"/>
     </g>
     <g id="line2d_57">
      <g>
       <use style="stroke:#000000;stroke-width:0.8;" x="373.45" xlink:href="#m2bf08ba9e6" y="42.111667"/>
      </g>
     </g>
     <g id="text_29">
      <!-- 6 -->
      <g transform="translate(360.0875 45.910886)scale(0.1 -0.1)">
       <use xlink:href="#DejaVuSans-54"/>
      </g>
     </g>
    </g>
   </g>
   <g id="line2d_58">
    <path clip-path="url(#p1e8f400aef)" d="M 386.346591 318.477273 
L 393.697721 318.362186 
L 400.783149 318.030059 
L 407.425739 317.498654 
L 413.536919 316.788016 
L 419.028134 315.927666 
L 423.899353 314.944855 
L 428.239178 313.849935 
L 432.136163 312.644 
L 435.678887 311.316205 
L 438.867322 309.882832 
L 441.701495 308.369845 
L 444.269959 306.755197 
L 446.661292 304.991851 
L 448.875494 303.080021 
L 450.912539 301.025304 
L 452.772479 298.840845 
L 454.543841 296.419478 
L 456.226624 293.734674 
L 457.820854 290.757613 
L 459.326507 287.457766 
L 460.74358 283.80362 
L 462.072101 279.764386 
L 463.312044 275.312097 
L 464.551987 270.013789 
L 465.703377 264.113883 
L 466.854767 256.975561 
L 467.917579 248.933681 
L 468.891813 239.935819 
L 469.866072 228.868889 
L 470.840305 215.03949 
L 471.725986 199.303991 
L 472.611667 179.758068 
L 473.585926 153.2454 
L 474.825869 112.633265 
L 476.651079 51.98813 
L 477.062415 45.378701 
L 477.313262 44.03766 
L 477.366466 44.032646 
L 477.408033 44.097178 
L 477.549583 44.762535 
L 477.834541 48.103351 
L 478.215947 56.205211 
L 478.887187 77.027496 
L 480.832119 141.38174 
L 481.819847 165.8449 
L 482.817869 185.060397 
L 483.826342 200.210297 
L 484.845368 212.313104 
L 485.874972 222.133447 
L 487.020041 230.956634 
L 488.178217 238.209338 
L 489.456915 244.763351 
L 490.751583 250.229294 
L 492.062533 254.851211 
L 493.501332 259.110034 
L 494.959664 262.750922 
L 496.552372 266.121217 
L 498.168405 269.031628 
L 499.926169 271.737317 
L 501.831546 274.241047 
L 503.768867 276.42277 
L 505.862805 278.451591 
L 508.120716 280.332253 
L 510.55021 282.071124 
L 513.291909 283.750828 
L 516.229058 285.286027 
L 519.510665 286.745767 
L 523.159357 288.119664 
L 527.200498 289.402028 
L 531.813954 290.627603 
L 537.047639 291.781631 
L 542.957209 292.855284 
L 549.776482 293.867042 
L 557.781384 294.824713 
L 567.115168 295.712967 
L 578.149358 296.536416 
L 591.556097 297.306025 
L 607.732685 298.005036 
L 627.679442 298.638631 
L 644.278409 299.036696 
L 644.278409 299.036696 
" style="fill:none;stroke:#8c564b;stroke-linecap:square;stroke-width:1.5;"/>
   </g>
   <g id="patch_8">
    <path d="M 373.45 332.2 
L 373.45 30.3 
" style="fill:none;stroke:#000000;stroke-linecap:square;stroke-linejoin:miter;stroke-width:0.8;"/>
   </g>
   <g id="patch_9">
    <path d="M 657.175 332.2 
L 657.175 30.3 
" style="fill:none;stroke:#000000;stroke-linecap:square;stroke-linejoin:miter;stroke-width:0.8;"/>
   </g>
   <g id="patch_10">
    <path d="M 373.45 332.2 
L 657.175 332.2 
" style="fill:none;stroke:#000000;stroke-linecap:square;stroke-linejoin:miter;stroke-width:0.8;"/>
   </g>
   <g id="patch_11">
    <path d="M 373.45 30.3 
L 657.175 30.3 
" style="fill:none;stroke:#000000;stroke-linecap:square;stroke-linejoin:miter;stroke-width:0.8;"/>
   </g>
   <g id="text_30">
    <!-- Y-direction -->
    <defs>
     <path d="M -0.203125 72.90625 
L 10.40625 72.90625 
L 30.609375 42.921875 
L 50.6875 72.90625 
L 61.28125 72.90625 
L 35.5 34.71875 
L 35.5 0 
L 25.59375 0 
L 25.59375 34.71875 
z
" id="DejaVuSans-89"/>
    </defs>
    <g style="fill:#8c564b;" transform="translate(483.069062 24.3)scale(0.12 -0.12)">
     <use xlink:href="#DejaVuSans-89"/>
     <use x="60.912109" xlink:href="#DejaVuSans-45"/>
     <use x="96.996094" xlink:href="#DejaVuSans-100"/>
     <use x="160.472656" xlink:href="#DejaVuSans-105"/>
     <use x="188.255859" xlink:href="#DejaVuSans-114"/>
     <use x="229.337891" xlink:href="#DejaVuSans-101"/>
     <use x="290.861328" xlink:href="#DejaVuSans-99"/>
     <use x="345.841797" xlink:href="#DejaVuSans-116"/>
     <use x="385.050781" xlink:href="#DejaVuSans-105"/>
     <use x="412.833984" xlink:href="#DejaVuSans-111"/>
     <use x="474.015625" xlink:href="#DejaVuSans-110"/>
    </g>
   </g>
  </g>
  <g id="axes_3">
   <g id="patch_12">
    <path d="M 709.975 332.2 
L 993.7 332.2 
L 993.7 30.3 
L 709.975 30.3 
z
" style="fill:#ffffff;"/>
   </g>
   <g id="matplotlib.axis_5">
    <g id="xtick_13">
     <g id="line2d_59">
      <path clip-path="url(#p55c98109a7)" d="M 722.783023 332.2 
L 722.783023 30.3 
" style="fill:none;stroke:#b0b0b0;stroke-linecap:square;stroke-width:0.5;"/>
     </g>
     <g id="line2d_60">
      <g>
       <use style="stroke:#000000;stroke-width:0.8;" x="722.783023" xlink:href="#m390067e4a0" y="332.2"/>
      </g>
     </g>
     <g id="text_31">
      <!-- 0 -->
      <g transform="translate(719.601773 346.798438)scale(0.1 -0.1)">
       <use xlink:href="#DejaVuSans-48"/>
      </g>
     </g>
    </g>
    <g id="xtick_14">
     <g id="line2d_61">
      <path clip-path="url(#p55c98109a7)" d="M 774.3871 332.2 
L 774.3871 30.3 
" style="fill:none;stroke:#b0b0b0;stroke-linecap:square;stroke-width:0.5;"/>
     </g>
     <g id="line2d_62">
      <g>
       <use style="stroke:#000000;stroke-width:0.8;" x="774.3871" xlink:href="#m390067e4a0" y="332.2"/>
      </g>
     </g>
     <g id="text_32">
      <!-- 200 -->
      <g transform="translate(764.84335 346.798438)scale(0.1 -0.1)">
       <use xlink:href="#DejaVuSans-50"/>
       <use x="63.623047" xlink:href="#DejaVuSans-48"/>
       <use x="127.246094" xlink:href="#DejaVuSans-48"/>
      </g>
     </g>
    </g>
    <g id="xtick_15">
     <g id="line2d_63">
      <path clip-path="url(#p55c98109a7)" d="M 825.991177 332.2 
L 825.991177 30.3 
" style="fill:none;stroke:#b0b0b0;stroke-linecap:square;stroke-width:0.5;"/>
     </g>
     <g id="line2d_64">
      <g>
       <use style="stroke:#000000;stroke-width:0.8;" x="825.991177" xlink:href="#m390067e4a0" y="332.2"/>
      </g>
     </g>
     <g id="text_33">
      <!-- 400 -->
      <g transform="translate(816.447427 346.798438)scale(0.1 -0.1)">
       <use xlink:href="#DejaVuSans-52"/>
       <use x="63.623047" xlink:href="#DejaVuSans-48"/>
       <use x="127.246094" xlink:href="#DejaVuSans-48"/>
      </g>
     </g>
    </g>
    <g id="xtick_16">
     <g id="line2d_65">
      <path clip-path="url(#p55c98109a7)" d="M 877.595255 332.2 
L 877.595255 30.3 
" style="fill:none;stroke:#b0b0b0;stroke-linecap:square;stroke-width:0.5;"/>
     </g>
     <g id="line2d_66">
      <g>
       <use style="stroke:#000000;stroke-width:0.8;" x="877.595255" xlink:href="#m390067e4a0" y="332.2"/>
      </g>
     </g>
     <g id="text_34">
      <!-- 600 -->
      <g transform="translate(868.051505 346.798438)scale(0.1 -0.1)">
       <use xlink:href="#DejaVuSans-54"/>
       <use x="63.623047" xlink:href="#DejaVuSans-48"/>
       <use x="127.246094" xlink:href="#DejaVuSans-48"/>
      </g>
     </g>
    </g>
    <g id="xtick_17">
     <g id="line2d_67">
      <path clip-path="url(#p55c98109a7)" d="M 929.199332 332.2 
L 929.199332 30.3 
" style="fill:none;stroke:#b0b0b0;stroke-linecap:square;stroke-width:0.5;"/>
     </g>
     <g id="line2d_68">
      <g>
       <use style="stroke:#000000;stroke-width:0.8;" x="929.199332" xlink:href="#m390067e4a0" y="332.2"/>
      </g>
     </g>
     <g id="text_35">
      <!-- 800 -->
      <g transform="translate(919.655582 346.798438)scale(0.1 -0.1)">
       <use xlink:href="#DejaVuSans-56"/>
       <use x="63.623047" xlink:href="#DejaVuSans-48"/>
       <use x="127.246094" xlink:href="#DejaVuSans-48"/>
      </g>
     </g>
    </g>
    <g id="xtick_18">
     <g id="line2d_69">
      <path clip-path="url(#p55c98109a7)" d="M 980.803409 332.2 
L 980.803409 30.3 
" style="fill:none;stroke:#b0b0b0;stroke-linecap:square;stroke-width:0.5;"/>
     </g>
     <g id="line2d_70">
      <g>
       <use style="stroke:#000000;stroke-width:0.8;" x="980.803409" xlink:href="#m390067e4a0" y="332.2"/>
      </g>
     </g>
     <g id="text_36">
      <!-- 1000 -->
      <g transform="translate(968.078409 346.798438)scale(0.1 -0.1)">
       <use xlink:href="#DejaVuSans-49"/>
       <use x="63.623047" xlink:href="#DejaVuSans-48"/>
       <use x="127.246094" xlink:href="#DejaVuSans-48"/>
       <use x="190.869141" xlink:href="#DejaVuSans-48"/>
      </g>
     </g>
    </g>
   </g>
   <g id="matplotlib.axis_6">
    <g id="ytick_17">
     <g id="line2d_71">
      <path clip-path="url(#p55c98109a7)" d="M 709.975 322.997376 
L 993.7 322.997376 
" style="fill:none;stroke:#b0b0b0;stroke-linecap:square;stroke-width:0.5;"/>
     </g>
     <g id="line2d_72">
      <g>
       <use style="stroke:#000000;stroke-width:0.8;" x="709.975" xlink:href="#m2bf08ba9e6" y="322.997376"/>
      </g>
     </g>
     <g id="text_37">
      <!-- 0 -->
      <g transform="translate(696.6125 326.796595)scale(0.1 -0.1)">
       <use xlink:href="#DejaVuSans-48"/>
      </g>
     </g>
    </g>
    <g id="ytick_18">
     <g id="line2d_73">
      <path clip-path="url(#p55c98109a7)" d="M 709.975 281.732025 
L 993.7 281.732025 
" style="fill:none;stroke:#b0b0b0;stroke-linecap:square;stroke-width:0.5;"/>
     </g>
     <g id="line2d_74">
      <g>
       <use style="stroke:#000000;stroke-width:0.8;" x="709.975" xlink:href="#m2bf08ba9e6" y="281.732025"/>
      </g>
     </g>
     <g id="text_38">
      <!-- 2000 -->
      <g transform="translate(677.525 285.531244)scale(0.1 -0.1)">
       <use xlink:href="#DejaVuSans-50"/>
       <use x="63.623047" xlink:href="#DejaVuSans-48"/>
       <use x="127.246094" xlink:href="#DejaVuSans-48"/>
       <use x="190.869141" xlink:href="#DejaVuSans-48"/>
      </g>
     </g>
    </g>
    <g id="ytick_19">
     <g id="line2d_75">
      <path clip-path="url(#p55c98109a7)" d="M 709.975 240.466674 
L 993.7 240.466674 
" style="fill:none;stroke:#b0b0b0;stroke-linecap:square;stroke-width:0.5;"/>
     </g>
     <g id="line2d_76">
      <g>
       <use style="stroke:#000000;stroke-width:0.8;" x="709.975" xlink:href="#m2bf08ba9e6" y="240.466674"/>
      </g>
     </g>
     <g id="text_39">
      <!-- 4000 -->
      <g transform="translate(677.525 244.265893)scale(0.1 -0.1)">
       <use xlink:href="#DejaVuSans-52"/>
       <use x="63.623047" xlink:href="#DejaVuSans-48"/>
       <use x="127.246094" xlink:href="#DejaVuSans-48"/>
       <use x="190.869141" xlink:href="#DejaVuSans-48"/>
      </g>
     </g>
    </g>
    <g id="ytick_20">
     <g id="line2d_77">
      <path clip-path="url(#p55c98109a7)" d="M 709.975 199.201323 
L 993.7 199.201323 
" style="fill:none;stroke:#b0b0b0;stroke-linecap:square;stroke-width:0.5;"/>
     </g>
     <g id="line2d_78">
      <g>
       <use style="stroke:#000000;stroke-width:0.8;" x="709.975" xlink:href="#m2bf08ba9e6" y="199.201323"/>
      </g>
     </g>
     <g id="text_40">
      <!-- 6000 -->
      <g transform="translate(677.525 203.000542)scale(0.1 -0.1)">
       <use xlink:href="#DejaVuSans-54"/>
       <use x="63.623047" xlink:href="#DejaVuSans-48"/>
       <use x="127.246094" xlink:href="#DejaVuSans-48"/>
       <use x="190.869141" xlink:href="#DejaVuSans-48"/>
      </g>
     </g>
    </g>
    <g id="ytick_21">
     <g id="line2d_79">
      <path clip-path="url(#p55c98109a7)" d="M 709.975 157.935972 
L 993.7 157.935972 
" style="fill:none;stroke:#b0b0b0;stroke-linecap:square;stroke-width:0.5;"/>
     </g>
     <g id="line2d_80">
      <g>
       <use style="stroke:#000000;stroke-width:0.8;" x="709.975" xlink:href="#m2bf08ba9e6" y="157.935972"/>
      </g>
     </g>
     <g id="text_41">
      <!-- 8000 -->
      <g transform="translate(677.525 161.735191)scale(0.1 -0.1)">
       <use xlink:href="#DejaVuSans-56"/>
       <use x="63.623047" xlink:href="#DejaVuSans-48"/>
       <use x="127.246094" xlink:href="#DejaVuSans-48"/>
       <use x="190.869141" xlink:href="#DejaVuSans-48"/>
      </g>
     </g>
    </g>
    <g id="ytick_22">
     <g id="line2d_81">
      <path clip-path="url(#p55c98109a7)" d="M 709.975 116.670621 
L 993.7 116.670621 
" style="fill:none;stroke:#b0b0b0;stroke-linecap:square;stroke-width:0.5;"/>
     </g>
     <g id="line2d_82">
      <g>
       <use style="stroke:#000000;stroke-width:0.8;" x="709.975" xlink:href="#m2bf08ba9e6" y="116.670621"/>
      </g>
     </g>
     <g id="text_42">
      <!-- 10000 -->
      <g transform="translate(671.1625 120.46984)scale(0.1 -0.1)">
       <use xlink:href="#DejaVuSans-49"/>
       <use x="63.623047" xlink:href="#DejaVuSans-48"/>
       <use x="127.246094" xlink:href="#DejaVuSans-48"/>
       <use x="190.869141" xlink:href="#DejaVuSans-48"/>
       <use x="254.492188" xlink:href="#DejaVuSans-48"/>
      </g>
     </g>
    </g>
    <g id="ytick_23">
     <g id="line2d_83">
      <path clip-path="url(#p55c98109a7)" d="M 709.975 75.40527 
L 993.7 75.40527 
" style="fill:none;stroke:#b0b0b0;stroke-linecap:square;stroke-width:0.5;"/>
     </g>
     <g id="line2d_84">
      <g>
       <use style="stroke:#000000;stroke-width:0.8;" x="709.975" xlink:href="#m2bf08ba9e6" y="75.40527"/>
      </g>
     </g>
     <g id="text_43">
      <!-- 12000 -->
      <g transform="translate(671.1625 79.204489)scale(0.1 -0.1)">
       <use xlink:href="#DejaVuSans-49"/>
       <use x="63.623047" xlink:href="#DejaVuSans-50"/>
       <use x="127.246094" xlink:href="#DejaVuSans-48"/>
       <use x="190.869141" xlink:href="#DejaVuSans-48"/>
       <use x="254.492188" xlink:href="#DejaVuSans-48"/>
      </g>
     </g>
    </g>
    <g id="ytick_24">
     <g id="line2d_85">
      <path clip-path="url(#p55c98109a7)" d="M 709.975 34.139919 
L 993.7 34.139919 
" style="fill:none;stroke:#b0b0b0;stroke-linecap:square;stroke-width:0.5;"/>
     </g>
     <g id="line2d_86">
      <g>
       <use style="stroke:#000000;stroke-width:0.8;" x="709.975" xlink:href="#m2bf08ba9e6" y="34.139919"/>
      </g>
     </g>
     <g id="text_44">
      <!-- 14000 -->
      <g transform="translate(671.1625 37.939138)scale(0.1 -0.1)">
       <use xlink:href="#DejaVuSans-49"/>
       <use x="63.623047" xlink:href="#DejaVuSans-52"/>
       <use x="127.246094" xlink:href="#DejaVuSans-48"/>
       <use x="190.869141" xlink:href="#DejaVuSans-48"/>
       <use x="254.492188" xlink:href="#DejaVuSans-48"/>
      </g>
     </g>
    </g>
   </g>
   <g id="line2d_87">
    <path clip-path="url(#p55c98109a7)" d="M 722.871591 282.516067 
L 730.399857 282.400007 
L 737.573853 282.0698 
L 744.305009 281.54176 
L 750.416181 280.846037 
L 755.907396 280.005612 
L 760.867193 279.027057 
L 765.295597 277.930571 
L 769.281135 276.715077 
L 772.823858 275.403366 
L 776.012293 273.986773 
L 778.846467 272.490626 
L 781.414931 270.89285 
L 783.806263 269.146693 
L 786.020465 267.251889 
L 788.057511 265.213767 
L 789.917451 263.044933 
L 791.688812 260.638757 
L 793.371595 257.9681 
L 794.965826 255.003812 
L 796.471478 251.714801 
L 797.888552 248.068973 
L 799.217073 244.03504 
L 800.457016 239.584629 
L 801.696958 234.284399 
L 802.848349 228.378501 
L 803.999739 221.230096 
L 805.062551 213.176496 
L 806.036784 204.168612 
L 807.011043 193.097319 
L 807.985276 179.273403 
L 808.870957 163.539025 
L 809.756638 143.911982 
L 810.730897 116.963941 
L 813.121198 46.659857 
L 813.424527 44.152758 
L 813.517879 44.024109 
L 813.563419 44.076711 
L 813.680922 44.566963 
L 813.878539 46.549797 
L 814.169457 52.028996 
L 814.645453 66.618877 
L 815.508454 103.052377 
L 816.867086 159.579393 
L 817.849705 191.072642 
L 818.742817 213.174901 
L 819.644315 230.639666 
L 820.655961 245.965477 
L 821.678109 258.117972 
L 822.710964 267.928255 
L 823.859568 276.703355 
L 825.021408 283.887987 
L 826.196562 289.859463 
L 827.493991 295.304865 
L 828.807625 299.875497 
L 830.137797 303.750606 
L 831.597677 307.312343 
L 833.077372 310.324005 
L 834.577167 312.861174 
L 835.979714 314.815546 
L 837.280885 316.279915 
L 838.476655 317.317211 
L 839.563566 317.982126 
L 840.538289 318.339561 
L 841.521089 318.475101 
L 842.636589 318.390319 
L 844.014288 318.029445 
L 845.918402 317.273248 
L 856.035665 312.927675 
L 860.25453 311.504995 
L 864.754303 310.226539 
L 869.859081 309.015935 
L 875.623179 307.887561 
L 882.108883 306.848473 
L 889.734959 305.860178 
L 898.637127 304.9407 
L 909.172357 304.086446 
L 921.780781 303.297966 
L 937.015337 302.577835 
L 955.824946 301.921875 
L 979.466476 301.331611 
L 980.803409 301.303892 
L 980.803409 301.303892 
" style="fill:none;stroke:#1f77b4;stroke-linecap:square;stroke-width:1.5;"/>
   </g>
   <g id="patch_13">
    <path d="M 709.975 332.2 
L 709.975 30.3 
" style="fill:none;stroke:#000000;stroke-linecap:square;stroke-linejoin:miter;stroke-width:0.8;"/>
   </g>
   <g id="patch_14">
    <path d="M 993.7 332.2 
L 993.7 30.3 
" style="fill:none;stroke:#000000;stroke-linecap:square;stroke-linejoin:miter;stroke-width:0.8;"/>
   </g>
   <g id="patch_15">
    <path d="M 709.975 332.2 
L 993.7 332.2 
" style="fill:none;stroke:#000000;stroke-linecap:square;stroke-linejoin:miter;stroke-width:0.8;"/>
   </g>
   <g id="patch_16">
    <path d="M 709.975 30.3 
L 993.7 30.3 
" style="fill:none;stroke:#000000;stroke-linecap:square;stroke-linejoin:miter;stroke-width:0.8;"/>
   </g>
   <g id="text_45">
    <!-- Z-direction -->
    <defs>
     <path d="M 5.609375 72.90625 
L 62.890625 72.90625 
L 62.890625 65.375 
L 16.796875 8.296875 
L 64.015625 8.296875 
L 64.015625 0 
L 4.5 0 
L 4.5 7.515625 
L 50.59375 64.59375 
L 5.609375 64.59375 
z
" id="DejaVuSans-90"/>
    </defs>
    <g style="fill:#1f77b4;" transform="translate(819.139375 24.3)scale(0.12 -0.12)">
     <use xlink:href="#DejaVuSans-90"/>
     <use x="68.490234" xlink:href="#DejaVuSans-45"/>
     <use x="104.574219" xlink:href="#DejaVuSans-100"/>
     <use x="168.050781" xlink:href="#DejaVuSans-105"/>
     <use x="195.833984" xlink:href="#DejaVuSans-114"/>
     <use x="236.916016" xlink:href="#DejaVuSans-101"/>
     <use x="298.439453" xlink:href="#DejaVuSans-99"/>
     <use x="353.419922" xlink:href="#DejaVuSans-116"/>
     <use x="392.628906" xlink:href="#DejaVuSans-105"/>
     <use x="420.412109" xlink:href="#DejaVuSans-111"/>
     <use x="481.59375" xlink:href="#DejaVuSans-110"/>
    </g>
   </g>
  </g>
  <g id="text_46">
   <!-- Transmissability analysis. Input direction Z: Bottom node -->
   <defs>
    <path d="M -0.296875 72.90625 
L 61.375 72.90625 
L 61.375 64.59375 
L 35.5 64.59375 
L 35.5 0 
L 25.59375 0 
L 25.59375 64.59375 
L -0.296875 64.59375 
z
" id="DejaVuSans-84"/>
    <path d="M 34.28125 27.484375 
Q 23.390625 27.484375 19.1875 25 
Q 14.984375 22.515625 14.984375 16.5 
Q 14.984375 11.71875 18.140625 8.90625 
Q 21.296875 6.109375 26.703125 6.109375 
Q 34.1875 6.109375 38.703125 11.40625 
Q 43.21875 16.703125 43.21875 25.484375 
L 43.21875 27.484375 
z
M 52.203125 31.203125 
L 52.203125 0 
L 43.21875 0 
L 43.21875 8.296875 
Q 40.140625 3.328125 35.546875 0.953125 
Q 30.953125 -1.421875 24.3125 -1.421875 
Q 15.921875 -1.421875 10.953125 3.296875 
Q 6 8.015625 6 15.921875 
Q 6 25.140625 12.171875 29.828125 
Q 18.359375 34.515625 30.609375 34.515625 
L 43.21875 34.515625 
L 43.21875 35.40625 
Q 43.21875 41.609375 39.140625 45 
Q 35.0625 48.390625 27.6875 48.390625 
Q 23 48.390625 18.546875 47.265625 
Q 14.109375 46.140625 10.015625 43.890625 
L 10.015625 52.203125 
Q 14.9375 54.109375 19.578125 55.046875 
Q 24.21875 56 28.609375 56 
Q 40.484375 56 46.34375 49.84375 
Q 52.203125 43.703125 52.203125 31.203125 
z
" id="DejaVuSans-97"/>
    <path d="M 44.28125 53.078125 
L 44.28125 44.578125 
Q 40.484375 46.53125 36.375 47.5 
Q 32.28125 48.484375 27.875 48.484375 
Q 21.1875 48.484375 17.84375 46.4375 
Q 14.5 44.390625 14.5 40.28125 
Q 14.5 37.15625 16.890625 35.375 
Q 19.28125 33.59375 26.515625 31.984375 
L 29.59375 31.296875 
Q 39.15625 29.25 43.1875 25.515625 
Q 47.21875 21.78125 47.21875 15.09375 
Q 47.21875 7.46875 41.1875 3.015625 
Q 35.15625 -1.421875 24.609375 -1.421875 
Q 20.21875 -1.421875 15.453125 -0.5625 
Q 10.6875 0.296875 5.421875 2 
L 5.421875 11.28125 
Q 10.40625 8.6875 15.234375 7.390625 
Q 20.0625 6.109375 24.8125 6.109375 
Q 31.15625 6.109375 34.5625 8.28125 
Q 37.984375 10.453125 37.984375 14.40625 
Q 37.984375 18.0625 35.515625 20.015625 
Q 33.0625 21.96875 24.703125 23.78125 
L 21.578125 24.515625 
Q 13.234375 26.265625 9.515625 29.90625 
Q 5.8125 33.546875 5.8125 39.890625 
Q 5.8125 47.609375 11.28125 51.796875 
Q 16.75 56 26.8125 56 
Q 31.78125 56 36.171875 55.265625 
Q 40.578125 54.546875 44.28125 53.078125 
z
" id="DejaVuSans-115"/>
    <path d="M 52 44.1875 
Q 55.375 50.25 60.0625 53.125 
Q 64.75 56 71.09375 56 
Q 79.640625 56 84.28125 50.015625 
Q 88.921875 44.046875 88.921875 33.015625 
L 88.921875 0 
L 79.890625 0 
L 79.890625 32.71875 
Q 79.890625 40.578125 77.09375 44.375 
Q 74.3125 48.1875 68.609375 48.1875 
Q 61.625 48.1875 57.5625 43.546875 
Q 53.515625 38.921875 53.515625 30.90625 
L 53.515625 0 
L 44.484375 0 
L 44.484375 32.71875 
Q 44.484375 40.625 41.703125 44.40625 
Q 38.921875 48.1875 33.109375 48.1875 
Q 26.21875 48.1875 22.15625 43.53125 
Q 18.109375 38.875 18.109375 30.90625 
L 18.109375 0 
L 9.078125 0 
L 9.078125 54.6875 
L 18.109375 54.6875 
L 18.109375 46.1875 
Q 21.1875 51.21875 25.484375 53.609375 
Q 29.78125 56 35.6875 56 
Q 41.65625 56 45.828125 52.96875 
Q 50 49.953125 52 44.1875 
z
" id="DejaVuSans-109"/>
    <path d="M 48.6875 27.296875 
Q 48.6875 37.203125 44.609375 42.84375 
Q 40.53125 48.484375 33.40625 48.484375 
Q 26.265625 48.484375 22.1875 42.84375 
Q 18.109375 37.203125 18.109375 27.296875 
Q 18.109375 17.390625 22.1875 11.75 
Q 26.265625 6.109375 33.40625 6.109375 
Q 40.53125 6.109375 44.609375 11.75 
Q 48.6875 17.390625 48.6875 27.296875 
z
M 18.109375 46.390625 
Q 20.953125 51.265625 25.265625 53.625 
Q 29.59375 56 35.59375 56 
Q 45.5625 56 51.78125 48.09375 
Q 58.015625 40.1875 58.015625 27.296875 
Q 58.015625 14.40625 51.78125 6.484375 
Q 45.5625 -1.421875 35.59375 -1.421875 
Q 29.59375 -1.421875 25.265625 0.953125 
Q 20.953125 3.328125 18.109375 8.203125 
L 18.109375 0 
L 9.078125 0 
L 9.078125 75.984375 
L 18.109375 75.984375 
z
" id="DejaVuSans-98"/>
    <path d="M 9.421875 75.984375 
L 18.40625 75.984375 
L 18.40625 0 
L 9.421875 0 
z
" id="DejaVuSans-108"/>
    <path d="M 32.171875 -5.078125 
Q 28.375 -14.84375 24.75 -17.8125 
Q 21.140625 -20.796875 15.09375 -20.796875 
L 7.90625 -20.796875 
L 7.90625 -13.28125 
L 13.1875 -13.28125 
Q 16.890625 -13.28125 18.9375 -11.515625 
Q 21 -9.765625 23.484375 -3.21875 
L 25.09375 0.875 
L 2.984375 54.6875 
L 12.5 54.6875 
L 29.59375 11.921875 
L 46.6875 54.6875 
L 56.203125 54.6875 
z
" id="DejaVuSans-121"/>
    <path id="DejaVuSans-32"/>
    <path d="M 10.6875 12.40625 
L 21 12.40625 
L 21 0 
L 10.6875 0 
z
" id="DejaVuSans-46"/>
    <path d="M 9.8125 72.90625 
L 19.671875 72.90625 
L 19.671875 0 
L 9.8125 0 
z
" id="DejaVuSans-73"/>
    <path d="M 18.109375 8.203125 
L 18.109375 -20.796875 
L 9.078125 -20.796875 
L 9.078125 54.6875 
L 18.109375 54.6875 
L 18.109375 46.390625 
Q 20.953125 51.265625 25.265625 53.625 
Q 29.59375 56 35.59375 56 
Q 45.5625 56 51.78125 48.09375 
Q 58.015625 40.1875 58.015625 27.296875 
Q 58.015625 14.40625 51.78125 6.484375 
Q 45.5625 -1.421875 35.59375 -1.421875 
Q 29.59375 -1.421875 25.265625 0.953125 
Q 20.953125 3.328125 18.109375 8.203125 
z
M 48.6875 27.296875 
Q 48.6875 37.203125 44.609375 42.84375 
Q 40.53125 48.484375 33.40625 48.484375 
Q 26.265625 48.484375 22.1875 42.84375 
Q 18.109375 37.203125 18.109375 27.296875 
Q 18.109375 17.390625 22.1875 11.75 
Q 26.265625 6.109375 33.40625 6.109375 
Q 40.53125 6.109375 44.609375 11.75 
Q 48.6875 17.390625 48.6875 27.296875 
z
" id="DejaVuSans-112"/>
    <path d="M 8.5 21.578125 
L 8.5 54.6875 
L 17.484375 54.6875 
L 17.484375 21.921875 
Q 17.484375 14.15625 20.5 10.265625 
Q 23.53125 6.390625 29.59375 6.390625 
Q 36.859375 6.390625 41.078125 11.03125 
Q 45.3125 15.671875 45.3125 23.6875 
L 45.3125 54.6875 
L 54.296875 54.6875 
L 54.296875 0 
L 45.3125 0 
L 45.3125 8.40625 
Q 42.046875 3.421875 37.71875 1 
Q 33.40625 -1.421875 27.6875 -1.421875 
Q 18.265625 -1.421875 13.375 4.4375 
Q 8.5 10.296875 8.5 21.578125 
z
M 31.109375 56 
z
" id="DejaVuSans-117"/>
    <path d="M 11.71875 12.40625 
L 22.015625 12.40625 
L 22.015625 0 
L 11.71875 0 
z
M 11.71875 51.703125 
L 22.015625 51.703125 
L 22.015625 39.3125 
L 11.71875 39.3125 
z
" id="DejaVuSans-58"/>
    <path d="M 19.671875 34.8125 
L 19.671875 8.109375 
L 35.5 8.109375 
Q 43.453125 8.109375 47.28125 11.40625 
Q 51.125 14.703125 51.125 21.484375 
Q 51.125 28.328125 47.28125 31.5625 
Q 43.453125 34.8125 35.5 34.8125 
z
M 19.671875 64.796875 
L 19.671875 42.828125 
L 34.28125 42.828125 
Q 41.5 42.828125 45.03125 45.53125 
Q 48.578125 48.25 48.578125 53.8125 
Q 48.578125 59.328125 45.03125 62.0625 
Q 41.5 64.796875 34.28125 64.796875 
z
M 9.8125 72.90625 
L 35.015625 72.90625 
Q 46.296875 72.90625 52.390625 68.21875 
Q 58.5 63.53125 58.5 54.890625 
Q 58.5 48.1875 55.375 44.234375 
Q 52.25 40.28125 46.1875 39.3125 
Q 53.46875 37.75 57.5 32.78125 
Q 61.53125 27.828125 61.53125 20.40625 
Q 61.53125 10.640625 54.890625 5.3125 
Q 48.25 0 35.984375 0 
L 9.8125 0 
z
" id="DejaVuSans-66"/>
   </defs>
   <g transform="translate(298.09125 3.74175)scale(0.144 -0.144)">
    <use xlink:href="#DejaVuSans-84"/>
    <use x="60.865234" xlink:href="#DejaVuSans-114"/>
    <use x="101.978516" xlink:href="#DejaVuSans-97"/>
    <use x="163.257812" xlink:href="#DejaVuSans-110"/>
    <use x="226.636719" xlink:href="#DejaVuSans-115"/>
    <use x="278.736328" xlink:href="#DejaVuSans-109"/>
    <use x="376.148438" xlink:href="#DejaVuSans-105"/>
    <use x="403.931641" xlink:href="#DejaVuSans-115"/>
    <use x="456.03125" xlink:href="#DejaVuSans-115"/>
    <use x="508.130859" xlink:href="#DejaVuSans-97"/>
    <use x="569.410156" xlink:href="#DejaVuSans-98"/>
    <use x="632.886719" xlink:href="#DejaVuSans-105"/>
    <use x="660.669922" xlink:href="#DejaVuSans-108"/>
    <use x="688.453125" xlink:href="#DejaVuSans-105"/>
    <use x="716.236328" xlink:href="#DejaVuSans-116"/>
    <use x="755.445312" xlink:href="#DejaVuSans-121"/>
    <use x="814.625" xlink:href="#DejaVuSans-32"/>
    <use x="846.412109" xlink:href="#DejaVuSans-97"/>
    <use x="907.691406" xlink:href="#DejaVuSans-110"/>
    <use x="971.070312" xlink:href="#DejaVuSans-97"/>
    <use x="1032.349609" xlink:href="#DejaVuSans-108"/>
    <use x="1060.132812" xlink:href="#DejaVuSans-121"/>
    <use x="1119.3125" xlink:href="#DejaVuSans-115"/>
    <use x="1171.412109" xlink:href="#DejaVuSans-105"/>
    <use x="1199.195312" xlink:href="#DejaVuSans-115"/>
    <use x="1251.294922" xlink:href="#DejaVuSans-46"/>
    <use x="1283.082031" xlink:href="#DejaVuSans-32"/>
    <use x="1314.869141" xlink:href="#DejaVuSans-73"/>
    <use x="1344.361328" xlink:href="#DejaVuSans-110"/>
    <use x="1407.740234" xlink:href="#DejaVuSans-112"/>
    <use x="1471.216797" xlink:href="#DejaVuSans-117"/>
    <use x="1534.595703" xlink:href="#DejaVuSans-116"/>
    <use x="1573.804688" xlink:href="#DejaVuSans-32"/>
    <use x="1605.591797" xlink:href="#DejaVuSans-100"/>
    <use x="1669.068359" xlink:href="#DejaVuSans-105"/>
    <use x="1696.851562" xlink:href="#DejaVuSans-114"/>
    <use x="1737.933594" xlink:href="#DejaVuSans-101"/>
    <use x="1799.457031" xlink:href="#DejaVuSans-99"/>
    <use x="1854.4375" xlink:href="#DejaVuSans-116"/>
    <use x="1893.646484" xlink:href="#DejaVuSans-105"/>
    <use x="1921.429688" xlink:href="#DejaVuSans-111"/>
    <use x="1982.611328" xlink:href="#DejaVuSans-110"/>
    <use x="2045.990234" xlink:href="#DejaVuSans-32"/>
    <use x="2077.777344" xlink:href="#DejaVuSans-90"/>
    <use x="2146.283203" xlink:href="#DejaVuSans-58"/>
    <use x="2179.974609" xlink:href="#DejaVuSans-32"/>
    <use x="2211.761719" xlink:href="#DejaVuSans-66"/>
    <use x="2280.365234" xlink:href="#DejaVuSans-111"/>
    <use x="2341.546875" xlink:href="#DejaVuSans-116"/>
    <use x="2380.755859" xlink:href="#DejaVuSans-116"/>
    <use x="2419.964844" xlink:href="#DejaVuSans-111"/>
    <use x="2481.146484" xlink:href="#DejaVuSans-109"/>
    <use x="2578.558594" xlink:href="#DejaVuSans-32"/>
    <use x="2610.345703" xlink:href="#DejaVuSans-110"/>
    <use x="2673.724609" xlink:href="#DejaVuSans-111"/>
    <use x="2734.90625" xlink:href="#DejaVuSans-100"/>
    <use x="2798.382812" xlink:href="#DejaVuSans-101"/>
   </g>
  </g>
  <g id="text_47">
   <!-- Frequency [Hz] -->
   <defs>
    <path d="M 9.8125 72.90625 
L 51.703125 72.90625 
L 51.703125 64.59375 
L 19.671875 64.59375 
L 19.671875 43.109375 
L 48.578125 43.109375 
L 48.578125 34.8125 
L 19.671875 34.8125 
L 19.671875 0 
L 9.8125 0 
z
" id="DejaVuSans-70"/>
    <path d="M 14.796875 27.296875 
Q 14.796875 17.390625 18.875 11.75 
Q 22.953125 6.109375 30.078125 6.109375 
Q 37.203125 6.109375 41.296875 11.75 
Q 45.40625 17.390625 45.40625 27.296875 
Q 45.40625 37.203125 41.296875 42.84375 
Q 37.203125 48.484375 30.078125 48.484375 
Q 22.953125 48.484375 18.875 42.84375 
Q 14.796875 37.203125 14.796875 27.296875 
z
M 45.40625 8.203125 
Q 42.578125 3.328125 38.25 0.953125 
Q 33.9375 -1.421875 27.875 -1.421875 
Q 17.96875 -1.421875 11.734375 6.484375 
Q 5.515625 14.40625 5.515625 27.296875 
Q 5.515625 40.1875 11.734375 48.09375 
Q 17.96875 56 27.875 56 
Q 33.9375 56 38.25 53.625 
Q 42.578125 51.265625 45.40625 46.390625 
L 45.40625 54.6875 
L 54.390625 54.6875 
L 54.390625 -20.796875 
L 45.40625 -20.796875 
z
" id="DejaVuSans-113"/>
    <path d="M 8.59375 75.984375 
L 29.296875 75.984375 
L 29.296875 69 
L 17.578125 69 
L 17.578125 -6.203125 
L 29.296875 -6.203125 
L 29.296875 -13.1875 
L 8.59375 -13.1875 
z
" id="DejaVuSans-91"/>
    <path d="M 9.8125 72.90625 
L 19.671875 72.90625 
L 19.671875 43.015625 
L 55.515625 43.015625 
L 55.515625 72.90625 
L 65.375 72.90625 
L 65.375 0 
L 55.515625 0 
L 55.515625 34.71875 
L 19.671875 34.71875 
L 19.671875 0 
L 9.8125 0 
z
" id="DejaVuSans-72"/>
    <path d="M 5.515625 54.6875 
L 48.1875 54.6875 
L 48.1875 46.484375 
L 14.40625 7.171875 
L 48.1875 7.171875 
L 48.1875 0 
L 4.296875 0 
L 4.296875 8.203125 
L 38.09375 47.515625 
L 5.515625 47.515625 
z
" id="DejaVuSans-122"/>
    <path d="M 30.421875 75.984375 
L 30.421875 -13.1875 
L 9.71875 -13.1875 
L 9.71875 -6.203125 
L 21.390625 -6.203125 
L 21.390625 69 
L 9.71875 69 
L 9.71875 75.984375 
z
" id="DejaVuSans-93"/>
   </defs>
   <g transform="translate(465.827344 360)scale(0.1 -0.1)">
    <use xlink:href="#DejaVuSans-70"/>
    <use x="57.410156" xlink:href="#DejaVuSans-114"/>
    <use x="98.492188" xlink:href="#DejaVuSans-101"/>
    <use x="160.015625" xlink:href="#DejaVuSans-113"/>
    <use x="223.492188" xlink:href="#DejaVuSans-117"/>
    <use x="286.871094" xlink:href="#DejaVuSans-101"/>
    <use x="348.394531" xlink:href="#DejaVuSans-110"/>
    <use x="411.773438" xlink:href="#DejaVuSans-99"/>
    <use x="466.753906" xlink:href="#DejaVuSans-121"/>
    <use x="525.933594" xlink:href="#DejaVuSans-32"/>
    <use x="557.720703" xlink:href="#DejaVuSans-91"/>
    <use x="596.734375" xlink:href="#DejaVuSans-72"/>
    <use x="671.929688" xlink:href="#DejaVuSans-122"/>
    <use x="724.419922" xlink:href="#DejaVuSans-93"/>
   </g>
  </g>
  <g id="text_48">
   <!-- Acceleration/Acceleration [mm/s^2/mm/s^2], Scaled to 2G -->
   <defs>
    <path d="M 34.1875 63.1875 
L 20.796875 26.90625 
L 47.609375 26.90625 
z
M 28.609375 72.90625 
L 39.796875 72.90625 
L 67.578125 0 
L 57.328125 0 
L 50.6875 18.703125 
L 17.828125 18.703125 
L 11.1875 0 
L 0.78125 0 
z
" id="DejaVuSans-65"/>
    <path d="M 25.390625 72.90625 
L 33.6875 72.90625 
L 8.296875 -9.28125 
L 0 -9.28125 
z
" id="DejaVuSans-47"/>
    <path d="M 46.6875 72.90625 
L 73.1875 45.703125 
L 63.375 45.703125 
L 41.890625 64.984375 
L 20.40625 45.703125 
L 10.59375 45.703125 
L 37.109375 72.90625 
z
" id="DejaVuSans-94"/>
    <path d="M 11.71875 12.40625 
L 22.015625 12.40625 
L 22.015625 4 
L 14.015625 -11.625 
L 7.71875 -11.625 
L 11.71875 4 
z
" id="DejaVuSans-44"/>
    <path d="M 53.515625 70.515625 
L 53.515625 60.890625 
Q 47.90625 63.578125 42.921875 64.890625 
Q 37.9375 66.21875 33.296875 66.21875 
Q 25.25 66.21875 20.875 63.09375 
Q 16.5 59.96875 16.5 54.203125 
Q 16.5 49.359375 19.40625 46.890625 
Q 22.3125 44.4375 30.421875 42.921875 
L 36.375 41.703125 
Q 47.40625 39.59375 52.65625 34.296875 
Q 57.90625 29 57.90625 20.125 
Q 57.90625 9.515625 50.796875 4.046875 
Q 43.703125 -1.421875 29.984375 -1.421875 
Q 24.8125 -1.421875 18.96875 -0.25 
Q 13.140625 0.921875 6.890625 3.21875 
L 6.890625 13.375 
Q 12.890625 10.015625 18.65625 8.296875 
Q 24.421875 6.59375 29.984375 6.59375 
Q 38.421875 6.59375 43.015625 9.90625 
Q 47.609375 13.234375 47.609375 19.390625 
Q 47.609375 24.75 44.3125 27.78125 
Q 41.015625 30.8125 33.5 32.328125 
L 27.484375 33.5 
Q 16.453125 35.6875 11.515625 40.375 
Q 6.59375 45.0625 6.59375 53.421875 
Q 6.59375 63.09375 13.40625 68.65625 
Q 20.21875 74.21875 32.171875 74.21875 
Q 37.3125 74.21875 42.625 73.28125 
Q 47.953125 72.359375 53.515625 70.515625 
z
" id="DejaVuSans-83"/>
    <path d="M 59.515625 10.40625 
L 59.515625 29.984375 
L 43.40625 29.984375 
L 43.40625 38.09375 
L 69.28125 38.09375 
L 69.28125 6.78125 
Q 63.578125 2.734375 56.6875 0.65625 
Q 49.8125 -1.421875 42 -1.421875 
Q 24.90625 -1.421875 15.25 8.5625 
Q 5.609375 18.5625 5.609375 36.375 
Q 5.609375 54.25 15.25 64.234375 
Q 24.90625 74.21875 42 74.21875 
Q 49.125 74.21875 55.546875 72.453125 
Q 61.96875 70.703125 67.390625 67.28125 
L 67.390625 56.78125 
Q 61.921875 61.421875 55.765625 63.765625 
Q 49.609375 66.109375 42.828125 66.109375 
Q 29.4375 66.109375 22.71875 58.640625 
Q 16.015625 51.171875 16.015625 36.375 
Q 16.015625 21.625 22.71875 14.15625 
Q 29.4375 6.6875 42.828125 6.6875 
Q 48.046875 6.6875 52.140625 7.59375 
Q 56.25 8.5 59.515625 10.40625 
z
" id="DejaVuSans-71"/>
   </defs>
   <g transform="translate(-2.481562 329.033594)rotate(-90)scale(0.1 -0.1)">
    <use xlink:href="#DejaVuSans-65"/>
    <use x="68.392578" xlink:href="#DejaVuSans-99"/>
    <use x="123.373047" xlink:href="#DejaVuSans-99"/>
    <use x="178.353516" xlink:href="#DejaVuSans-101"/>
    <use x="239.876953" xlink:href="#DejaVuSans-108"/>
    <use x="267.660156" xlink:href="#DejaVuSans-101"/>
    <use x="329.183594" xlink:href="#DejaVuSans-114"/>
    <use x="370.296875" xlink:href="#DejaVuSans-97"/>
    <use x="431.576172" xlink:href="#DejaVuSans-116"/>
    <use x="470.785156" xlink:href="#DejaVuSans-105"/>
    <use x="498.568359" xlink:href="#DejaVuSans-111"/>
    <use x="559.75" xlink:href="#DejaVuSans-110"/>
    <use x="623.128906" xlink:href="#DejaVuSans-47"/>
    <use x="656.820312" xlink:href="#DejaVuSans-65"/>
    <use x="725.212891" xlink:href="#DejaVuSans-99"/>
    <use x="780.193359" xlink:href="#DejaVuSans-99"/>
    <use x="835.173828" xlink:href="#DejaVuSans-101"/>
    <use x="896.697266" xlink:href="#DejaVuSans-108"/>
    <use x="924.480469" xlink:href="#DejaVuSans-101"/>
    <use x="986.003906" xlink:href="#DejaVuSans-114"/>
    <use x="1027.117188" xlink:href="#DejaVuSans-97"/>
    <use x="1088.396484" xlink:href="#DejaVuSans-116"/>
    <use x="1127.605469" xlink:href="#DejaVuSans-105"/>
    <use x="1155.388672" xlink:href="#DejaVuSans-111"/>
    <use x="1216.570312" xlink:href="#DejaVuSans-110"/>
    <use x="1279.949219" xlink:href="#DejaVuSans-32"/>
    <use x="1311.736328" xlink:href="#DejaVuSans-91"/>
    <use x="1350.75" xlink:href="#DejaVuSans-109"/>
    <use x="1448.162109" xlink:href="#DejaVuSans-109"/>
    <use x="1545.574219" xlink:href="#DejaVuSans-47"/>
    <use x="1579.265625" xlink:href="#DejaVuSans-115"/>
    <use x="1631.365234" xlink:href="#DejaVuSans-94"/>
    <use x="1715.154297" xlink:href="#DejaVuSans-50"/>
    <use x="1778.777344" xlink:href="#DejaVuSans-47"/>
    <use x="1812.46875" xlink:href="#DejaVuSans-109"/>
    <use x="1909.880859" xlink:href="#DejaVuSans-109"/>
    <use x="2007.292969" xlink:href="#DejaVuSans-47"/>
    <use x="2040.984375" xlink:href="#DejaVuSans-115"/>
    <use x="2093.083984" xlink:href="#DejaVuSans-94"/>
    <use x="2176.873047" xlink:href="#DejaVuSans-50"/>
    <use x="2240.496094" xlink:href="#DejaVuSans-93"/>
    <use x="2279.509766" xlink:href="#DejaVuSans-44"/>
    <use x="2311.296875" xlink:href="#DejaVuSans-32"/>
    <use x="2343.083984" xlink:href="#DejaVuSans-83"/>
    <use x="2406.560547" xlink:href="#DejaVuSans-99"/>
    <use x="2461.541016" xlink:href="#DejaVuSans-97"/>
    <use x="2522.820312" xlink:href="#DejaVuSans-108"/>
    <use x="2550.603516" xlink:href="#DejaVuSans-101"/>
    <use x="2612.126953" xlink:href="#DejaVuSans-100"/>
    <use x="2675.603516" xlink:href="#DejaVuSans-32"/>
    <use x="2707.390625" xlink:href="#DejaVuSans-116"/>
    <use x="2746.599609" xlink:href="#DejaVuSans-111"/>
    <use x="2807.78125" xlink:href="#DejaVuSans-32"/>
    <use x="2839.568359" xlink:href="#DejaVuSans-50"/>
    <use x="2903.191406" xlink:href="#DejaVuSans-71"/>
   </g>
  </g>
 </g>
 <defs>
  <clipPath id="p7b82d22421">
   <rect height="301.9" width="283.725" x="36.925" y="30.3"/>
  </clipPath>
  <clipPath id="p1e8f400aef">
   <rect height="301.9" width="283.725" x="373.45" y="30.3"/>
  </clipPath>
  <clipPath id="p55c98109a7">
   <rect height="301.9" width="283.725" x="709.975" y="30.3"/>
  </clipPath>
 </defs>
</svg>
